<svg width="477" height="554" viewBox="0 0 477 554" fill="none" xmlns="http://www.w3.org/2000/svg">
<path d="M241.184 130.807L155.702 208.936H326.667L241.184 130.807Z" fill="white" stroke="black"/>
<path d="M127.892 360.781V376.857H354.475V360.781H127.892Z" fill="white" stroke="black"/>
<path d="M344.847 230.001H137.521C136.887 230.001 136.373 229.487 136.373 228.853C136.373 228.218 136.887 227.705 137.521 227.705H344.847C345.482 227.705 345.995 228.218 345.995 228.853C345.995 229.487 345.482 230.001 344.847 230.001Z" fill="#2C3342"/>
<path d="M159.333 292.052C158.698 292.052 158.184 291.538 158.184 290.904V247.611C158.184 246.976 158.698 246.463 159.333 246.463C159.967 246.463 160.481 246.976 160.481 247.611V290.904C160.481 291.538 159.967 292.052 159.333 292.052Z" fill="#2C3342"/>
<path d="M159.333 342.013C158.698 342.013 158.184 341.498 158.184 340.864V302.458C158.184 301.824 158.698 301.309 159.333 301.309C159.967 301.309 160.481 301.824 160.481 302.458V340.864C160.481 341.498 159.967 342.013 159.333 342.013Z" fill="#2C3342"/>
<path d="M212.096 301.705C211.462 301.705 210.948 301.192 210.948 300.557V247.94C210.948 247.305 211.462 246.791 212.096 246.791C212.731 246.791 213.244 247.305 213.244 247.94V300.557C213.244 301.192 212.731 301.705 212.096 301.705Z" fill="#2C3342"/>
<path d="M212.096 342.013C211.462 342.013 210.948 341.498 210.948 340.864V309.917C210.948 309.283 211.462 308.769 212.096 308.769C212.731 308.769 213.244 309.283 213.244 309.917V340.864C213.244 341.498 212.731 342.013 212.096 342.013Z" fill="#2C3342"/>
<path d="M270.272 342.342C269.637 342.342 269.123 341.828 269.123 341.194V292.659C269.123 292.024 269.637 291.51 270.272 291.51C270.907 291.51 271.42 292.024 271.42 292.659V341.194C271.42 341.828 270.907 342.342 270.272 342.342Z" fill="#2C3342"/>
<path d="M270.272 281.814C269.637 281.814 269.123 281.299 269.123 280.665V247.611C269.123 246.976 269.637 246.463 270.272 246.463C270.907 246.463 271.42 246.976 271.42 247.611V280.665C271.42 281.299 270.907 281.814 270.272 281.814Z" fill="#2C3342"/>
<path d="M321.446 308.141C320.811 308.141 320.297 307.626 320.297 306.993V247.611C320.297 246.976 320.811 246.463 321.446 246.463C322.08 246.463 322.594 246.976 322.594 247.611V306.993C322.594 307.626 322.08 308.141 321.446 308.141Z" fill="#2C3342"/>
<path d="M321.446 342.013C320.811 342.013 320.297 341.498 320.297 340.864V321.033C320.297 320.398 320.811 319.885 321.446 319.885C322.08 319.885 322.594 320.398 322.594 321.033V340.864C322.594 341.498 322.08 342.013 321.446 342.013Z" fill="#2C3342"/>
<path d="M238.142 203.594H244.039V197.844C244.039 197.185 244.488 196.611 245.127 196.451C247.208 195.931 249.009 195.072 250.482 193.896C253.124 191.784 254.465 188.848 254.465 185.168C254.465 182.503 253.749 180.224 252.339 178.395C250.917 176.552 248.252 174.69 244.417 172.86C241.503 171.47 239.615 170.487 238.805 169.94C238.013 169.397 237.421 168.823 237.034 168.224C236.638 167.565 236.452 166.857 236.452 166.075C236.452 164.771 236.925 163.702 237.858 162.895C238.779 162.085 240.111 161.674 241.819 161.674C243.188 161.674 244.64 161.857 246.137 162.216C247.64 162.6 249.439 163.223 251.506 164.075L254.222 157.54C252.135 156.648 250.119 155.945 248.241 155.455C247.337 155.221 246.372 155.038 245.29 154.899C244.575 154.806 244.039 154.196 244.039 153.475V148.039H238.142V153.877C238.142 154.538 237.689 155.115 237.046 155.271C235.028 155.765 233.283 156.62 231.864 157.815C229.428 159.875 228.193 162.748 228.193 166.35C228.193 168.276 228.568 169.971 229.31 171.388C230.063 172.839 231.073 174.111 232.312 175.172C233.574 176.271 235.425 177.388 237.985 178.594C240.683 179.873 242.507 180.825 243.406 181.424C244.296 182.017 244.986 182.647 245.456 183.295C245.942 183.986 246.182 184.754 246.182 185.596C246.182 187.107 245.631 188.266 244.549 189.038C243.473 189.8 241.938 190.184 239.984 190.184C238.416 190.184 236.558 189.916 234.611 189.409C232.769 188.924 230.511 188.092 227.715 186.87V194.669C230.411 195.969 233.47 196.758 236.817 197.016C237.564 197.073 238.142 197.697 238.142 198.447V203.594ZM245.474 206.465H236.706C235.913 206.465 235.271 205.822 235.271 205.029V199.749C232.028 199.365 229.034 198.51 226.352 197.199L225.656 196.863C225.16 196.623 224.844 196.121 224.844 195.57V184.654C224.844 184.167 225.091 183.712 225.5 183.448C225.909 183.184 226.424 183.145 226.869 183.345L228.627 184.136C231.354 185.337 233.615 186.178 235.338 186.633C238.713 187.511 241.767 187.49 242.885 186.698C243.098 186.546 243.311 186.333 243.311 185.596C243.311 185.343 243.253 185.155 243.12 184.964C242.945 184.725 242.567 184.315 241.813 183.812C241.276 183.455 239.962 182.709 236.758 181.189C233.958 179.87 231.889 178.611 230.436 177.345C228.925 176.05 227.686 174.491 226.764 172.716C225.807 170.887 225.322 168.743 225.322 166.35C225.322 161.865 226.9 158.254 230.012 155.62C231.509 154.362 233.273 153.412 235.271 152.787V146.603C235.271 145.811 235.913 145.168 236.706 145.168H245.474C246.268 145.168 246.91 145.811 246.91 146.603V152.238C247.628 152.361 248.308 152.506 248.962 152.676C251.029 153.214 253.232 153.987 255.514 154.97L256.666 155.477C257.381 155.791 257.714 156.62 257.415 157.343L253.608 166.5C253.305 167.231 252.463 167.578 251.735 167.276L250.58 166.798C248.593 165.974 246.819 165.354 245.447 165.003C244.189 164.701 242.963 164.545 241.819 164.545C240.843 164.545 240.129 164.721 239.754 165.052C239.748 165.056 239.744 165.061 239.739 165.065C239.482 165.287 239.322 165.532 239.322 166.075C239.322 166.334 239.371 166.541 239.469 166.706C239.567 166.854 239.837 167.167 240.419 167.566C240.8 167.824 242 168.525 245.653 170.269C249.958 172.323 252.889 174.407 254.613 176.642C256.42 178.986 257.335 181.854 257.335 185.168C257.335 189.764 255.632 193.455 252.274 196.139C250.744 197.36 248.944 198.296 246.91 198.931V205.029C246.91 205.822 246.268 206.465 245.474 206.465Z" fill="#2C3342"/>
<path d="M138.956 236.302H343.411V221.402H138.956V236.302ZM344.847 239.173H137.521C136.729 239.173 136.085 238.53 136.085 237.738V219.967C136.085 219.174 136.729 218.532 137.521 218.532H344.847C345.64 218.532 346.282 219.174 346.282 219.967V237.738C346.282 238.53 345.64 239.173 344.847 239.173Z" fill="#2C3342"/>
<path d="M144.826 246.176H173.839V239.173H144.826V246.176ZM175.274 249.047H143.39C142.597 249.047 141.955 248.404 141.955 247.611V237.738C141.955 236.944 142.597 236.302 143.39 236.302H175.274C176.068 236.302 176.71 236.944 176.71 237.738V247.611C176.71 248.404 176.068 249.047 175.274 249.047Z" fill="#2C3342"/>
<path d="M149.254 339.429H169.412V249.047H149.254V339.429ZM170.847 342.3H147.818C147.026 342.3 146.383 341.657 146.383 340.864V247.611C146.383 246.818 147.026 246.176 147.818 246.176H170.847C171.64 246.176 172.283 246.818 172.283 247.611V340.864C172.283 341.657 171.64 342.3 170.847 342.3Z" fill="#2C3342"/>
<path d="M144.826 349.301H173.839V342.3H144.826V349.301ZM175.274 352.172H143.39C142.597 352.172 141.955 351.53 141.955 350.737V340.864C141.955 340.071 142.597 339.429 143.39 339.429H175.274C176.068 339.429 176.71 340.071 176.71 340.864V350.737C176.71 351.53 176.068 352.172 175.274 352.172Z" fill="#2C3342"/>
<path d="M308.529 246.176H337.542V239.173H308.529V246.176ZM338.978 249.047H307.094C306.3 249.047 305.658 248.404 305.658 247.611V237.738C305.658 236.944 306.3 236.302 307.094 236.302H338.978C339.771 236.302 340.413 236.944 340.413 237.738V247.611C340.413 248.404 339.771 249.047 338.978 249.047Z" fill="#2C3342"/>
<path d="M312.957 339.429H333.114V249.047H312.957V339.429ZM334.55 342.3H311.522C310.729 342.3 310.086 341.657 310.086 340.864V247.611C310.086 246.818 310.729 246.176 311.522 246.176H334.55C335.342 246.176 335.985 246.818 335.985 247.611V340.864C335.985 341.657 335.342 342.3 334.55 342.3Z" fill="#2C3342"/>
<path d="M308.529 349.301H337.542V342.3H308.529V349.301ZM338.978 352.172H307.094C306.3 352.172 305.658 351.53 305.658 350.737V340.864C305.658 340.071 306.3 339.429 307.094 339.429H338.978C339.771 339.429 340.413 340.071 340.413 340.864V350.737C340.413 351.53 339.771 352.172 338.978 352.172Z" fill="#2C3342"/>
<path d="M197.589 246.284H226.603V239.283H197.589V246.284ZM228.039 249.155H196.153C195.361 249.155 194.718 248.513 194.718 247.719V237.848C194.718 237.054 195.361 236.413 196.153 236.413H228.039C228.831 236.413 229.474 237.054 229.474 237.848V247.719C229.474 248.513 228.831 249.155 228.039 249.155Z" fill="#2C3342"/>
<path d="M202.018 339.538H222.175V249.155H202.018V339.538ZM223.611 342.409H200.583C199.789 342.409 199.147 341.767 199.147 340.973V247.719C199.147 246.927 199.789 246.284 200.583 246.284H223.611C224.403 246.284 225.046 246.927 225.046 247.719V340.973C225.046 341.767 224.403 342.409 223.611 342.409Z" fill="#2C3342"/>
<path d="M197.589 349.412H226.603V342.409H197.589V349.412ZM228.039 352.282H196.153C195.361 352.282 194.718 351.639 194.718 350.847V340.973C194.718 340.181 195.361 339.538 196.153 339.538H228.039C228.831 339.538 229.474 340.181 229.474 340.973V350.847C229.474 351.639 228.831 352.282 228.039 352.282Z" fill="#2C3342"/>
<path d="M255.765 246.504H284.779V239.501H255.765V246.504ZM286.214 249.375H254.329C253.537 249.375 252.894 248.732 252.894 247.94V238.067C252.894 237.274 253.537 236.632 254.329 236.632H286.214C287.007 236.632 287.65 237.274 287.65 238.067V247.94C287.65 248.732 287.007 249.375 286.214 249.375Z" fill="#2C3342"/>
<path d="M260.194 339.759H280.35V249.375H260.194V339.759ZM281.785 342.629H258.758C257.965 342.629 257.323 341.986 257.323 341.194V247.94C257.323 247.146 257.965 246.504 258.758 246.504H281.785C282.579 246.504 283.221 247.146 283.221 247.94V341.194C283.221 341.986 282.579 342.629 281.785 342.629Z" fill="#2C3342"/>
<path d="M255.765 349.63H284.779V342.629H255.765V349.63ZM286.214 352.501H254.329C253.537 352.501 252.894 351.859 252.894 351.065V341.194C252.894 340.4 253.537 339.758 254.329 339.758H286.214C287.007 339.758 287.65 340.4 287.65 341.194V351.065C287.65 351.859 287.007 352.501 286.214 352.501Z" fill="#2C3342"/>
<path d="M138.956 358.516H343.411V352.501H138.956V358.516ZM344.847 361.387H137.521C136.729 361.387 136.085 360.744 136.085 359.951V351.065C136.085 350.273 136.729 349.63 137.521 349.63H344.847C345.64 349.63 346.282 350.273 346.282 351.065V359.951C346.282 360.744 345.64 361.387 344.847 361.387Z" fill="#2C3342"/>
<path d="M127.262 218.531H355.106L241.184 114.409L127.262 218.531ZM358.805 221.402H123.564C122.973 221.402 122.441 221.038 122.226 220.486C122.011 219.934 122.158 219.307 122.596 218.907L240.215 111.405C240.765 110.903 241.603 110.903 242.153 111.405L359.774 218.907C360.21 219.307 360.357 219.934 360.143 220.486C359.928 221.038 359.397 221.402 358.805 221.402Z" fill="#2C3342"/>
<path d="M450.661 203.239C449.658 203.253 448.77 202.577 447.931 202.116C446.91 201.541 445.852 201.018 444.781 200.547C442.556 199.578 440.251 198.819 437.881 198.288C435.533 197.758 433.184 197.547 430.791 197.372C429.745 197.305 428.621 197.06 427.994 196.144C427.516 195.434 427.416 194.507 427.664 193.693C428.319 191.574 430.637 190.916 432.589 190.683C432.637 190.683 432.666 190.697 432.699 190.701C433.126 190.652 433.555 190.627 433.977 190.658C435.224 190.728 436.447 191.06 437.642 191.401C439.023 191.798 440.408 192.186 441.775 192.612C444.17 193.356 446.561 194.182 448.826 195.288C450.641 196.173 452.492 197.49 452.949 199.591C453.275 201.139 452.505 203.225 450.661 203.239Z" fill="#2C3342"/>
<path d="M439.258 215.585L436.904 222.81L436.672 223.521L437.347 223.841C438.517 224.396 439.632 224.997 440.685 225.67C442.805 227.03 444.978 228.696 447.148 230.606C447.148 230.607 447.149 230.607 447.15 230.608L447.668 231.072L440.825 239.05L440.302 238.603C440.302 238.603 440.302 238.603 440.302 238.603C438.112 236.727 436.213 235.295 434.686 234.329L434.677 234.323L434.677 234.323C433.168 233.394 431.616 232.65 430.031 232.134L439.258 215.585ZM439.258 215.585L430.626 212.771L428.117 220.466L427.91 221.1L427.245 221.05C424.51 220.843 422.032 221.212 419.809 222.112C415.928 223.693 413.209 226.736 411.736 231.256L411.736 231.256C410.952 233.659 410.741 235.93 411.091 238.005L411.091 238.007C411.435 240.082 412.163 242.064 413.281 243.896L413.281 243.896L413.285 243.902C414.372 245.723 416.149 247.787 418.759 250.247L418.76 250.248C421.374 252.721 423.125 254.503 423.928 255.52L423.929 255.521C424.657 256.445 425.183 257.352 425.458 258.204L425.458 258.204L425.462 258.215C425.704 259.003 425.694 259.798 425.431 260.604L425.431 260.604C424.964 262.036 424.139 262.997 422.808 263.417L422.804 263.418C421.385 263.858 419.557 263.661 417.592 263.021C415.803 262.438 413.822 261.451 411.816 260.168L411.814 260.166C409.773 258.849 407.339 256.898 404.584 254.433L404.584 254.433L404.578 254.428L403.797 253.718L400.211 264.72L400.519 265.015L400.519 265.015L400.523 265.019C403.263 267.677 406.662 269.863 410.654 271.514L411.381 271.815L411.137 272.563L408.893 279.449L417.526 282.263L420 274.672L420.206 274.041L420.868 274.087C423.681 274.285 426.226 273.932 428.487 273.085C432.648 271.523 435.515 268.435 437.016 263.828L437.016 263.828C438.105 260.487 438.118 257.36 437.104 254.511C436.11 251.721 433.74 248.488 429.72 244.665C426.19 241.307 424.867 239.86 424.365 239.216L424.361 239.211C423.736 238.398 423.309 237.61 423.11 236.863L423.106 236.849L423.103 236.834C422.945 236.142 422.985 235.408 423.235 234.646L439.258 215.585ZM425.581 232.024C424.394 232.522 423.644 233.393 423.235 234.645L425.581 232.024ZM425.581 232.024C426.835 231.483 428.354 231.588 430.031 232.134L425.581 232.024Z" fill="white" stroke="black" stroke-width="1.7"/>
<path d="M430.11 197.735C429.804 197.735 429.499 197.613 429.272 197.373C428.838 196.911 428.86 196.184 429.322 195.75L433.87 191.468C434.332 191.034 435.058 191.055 435.494 191.516C435.928 191.979 435.906 192.706 435.445 193.14L430.896 197.422C430.675 197.631 430.392 197.735 430.11 197.735Z" fill="#2C3342"/>
<path d="M437.102 198.115C436.829 198.115 436.556 198.017 436.335 197.821C435.863 197.397 435.824 196.671 436.248 196.2L439.49 192.587C439.913 192.113 440.639 192.077 441.111 192.498C441.583 192.922 441.622 193.648 441.198 194.12L437.958 197.733C437.73 197.985 437.417 198.115 437.102 198.115Z" fill="#2C3342"/>
<path d="M443.295 200.005C442.97 200.005 442.647 199.866 442.419 199.599C442.009 199.115 442.069 198.391 442.552 197.981L446.143 194.932C446.628 194.523 447.351 194.579 447.763 195.064C448.173 195.547 448.113 196.272 447.63 196.682L444.037 199.732C443.822 199.914 443.558 200.005 443.295 200.005Z" fill="#2C3342"/>
<path d="M447.624 202.442C447.291 202.442 446.963 202.3 446.736 202.023C446.332 201.534 446.404 200.81 446.893 200.407L450.217 197.668C450.709 197.265 451.432 197.334 451.834 197.824C452.237 198.314 452.168 199.037 451.678 199.441L448.352 202.18C448.139 202.356 447.88 202.442 447.624 202.442Z" fill="#2C3342"/>
<path d="M439.666 193.576C439.039 193.576 438.527 193.071 438.518 192.443L438.31 177.084C438.301 176.449 438.81 175.929 439.442 175.92C439.448 175.92 439.454 175.92 439.459 175.92C440.086 175.92 440.598 176.424 440.607 177.052L440.815 192.412C440.823 193.046 440.315 193.568 439.681 193.576C439.677 193.576 439.671 193.576 439.666 193.576Z" fill="#2C3342"/>
<path d="M444.991 194.898C444.796 194.898 444.598 194.849 444.418 194.744C443.868 194.427 443.68 193.725 443.997 193.176L451.522 180.148C451.839 179.598 452.543 179.408 453.09 179.727C453.64 180.046 453.829 180.747 453.511 181.296L445.987 194.324C445.773 194.693 445.387 194.898 444.991 194.898Z" fill="#2C3342"/>
<path d="M380.144 256.721C379.555 256.721 379.055 256.272 379.001 255.675C378.455 249.565 379.692 243.189 382.485 237.723C385.278 232.258 389.72 227.52 394.992 224.381C395.536 224.056 396.24 224.236 396.566 224.781C396.89 225.325 396.712 226.03 396.167 226.355C391.261 229.275 387.129 233.684 384.531 238.768C381.932 243.854 380.781 249.785 381.289 255.471C381.345 256.102 380.878 256.66 380.247 256.716C380.212 256.72 380.177 256.721 380.144 256.721Z" fill="#2C3342"/>
<path d="M402.741 237.152C402.286 237.152 401.856 236.879 401.675 236.431L399.046 229.891C398.809 229.303 399.094 228.633 399.682 228.397C400.266 228.163 400.938 228.444 401.176 229.034L403.806 235.574C404.042 236.162 403.757 236.832 403.169 237.068C403.029 237.124 402.885 237.152 402.741 237.152Z" fill="#2C3342"/>
<path d="M398.437 242.636C398.204 242.636 397.967 242.565 397.765 242.417L392.647 238.707C392.133 238.335 392.019 237.616 392.391 237.103C392.762 236.588 393.478 236.473 393.994 236.848L399.112 240.558C399.627 240.93 399.74 241.648 399.368 242.161C399.144 242.471 398.793 242.636 398.437 242.636Z" fill="#2C3342"/>
<path d="M397.152 249.531C397.128 249.531 397.101 249.53 397.076 249.529L391.105 249.138C390.471 249.097 389.992 248.549 390.033 247.917C390.075 247.283 390.634 246.814 391.255 246.846L397.227 247.237C397.859 247.278 398.339 247.825 398.297 248.459C398.257 249.065 397.753 249.531 397.152 249.531Z" fill="#2C3342"/>
<path d="M443.072 248.855C442.617 248.855 442.187 248.583 442.007 248.136C441.77 247.547 442.055 246.877 442.643 246.641L449.407 243.917C449.995 243.685 450.664 243.964 450.902 244.552C451.138 245.141 450.853 245.809 450.266 246.047L443.502 248.771C443.361 248.827 443.216 248.855 443.072 248.855Z" fill="#2C3342"/>
<path d="M447.406 256.258C445.928 256.258 444.455 256.098 443.001 255.78C442.381 255.644 441.989 255.031 442.125 254.412C442.262 253.792 442.873 253.4 443.493 253.537C445.539 253.984 447.632 254.08 449.71 253.816C450.343 253.748 450.913 254.181 450.994 254.81C451.073 255.441 450.629 256.015 449.999 256.094C449.136 256.203 448.27 256.258 447.406 256.258Z" fill="#2C3342"/>
<path d="M447.441 264.616C447.228 264.616 447.012 264.556 446.82 264.433L442.541 261.674C442.008 261.329 441.854 260.619 442.197 260.086C442.541 259.552 443.25 259.4 443.786 259.742L448.064 262.502C448.597 262.846 448.751 263.556 448.408 264.09C448.188 264.431 447.817 264.616 447.441 264.616Z" fill="#2C3342"/>
<path d="M440.989 298.736C440.368 298.736 439.857 298.24 439.841 297.616C439.825 296.982 440.327 296.455 440.961 296.439C444.14 296.361 447.328 295.311 449.935 293.487C450.452 293.123 451.171 293.249 451.535 293.769C451.897 294.288 451.772 295.005 451.252 295.368C448.279 297.45 444.644 298.645 441.019 298.736C441.009 298.736 440.998 298.736 440.989 298.736Z" fill="#2C3342"/>
<path d="M384.545 282.886C384.343 282.886 384.14 282.833 383.955 282.723C379.272 279.91 375.568 275.332 373.795 270.167C373.588 269.568 373.906 268.913 374.507 268.709C375.107 268.502 375.759 268.821 375.965 269.421C377.568 274.083 380.911 278.215 385.137 280.754C385.681 281.081 385.857 281.786 385.531 282.329C385.316 282.688 384.936 282.886 384.545 282.886Z" fill="#2C3342"/>
<path d="M442.683 301.19C442.687 301.19 442.69 301.19 442.692 301.19C445.683 301.197 448.078 302.811 450.004 304.11C451.488 305.112 452.775 305.972 453.702 305.764C454.374 305.612 455.109 304.869 455.885 303.555C455.885 303.555 455.885 303.555 455.885 303.554C457.016 301.643 457.344 299.94 456.861 298.495C456.092 296.191 453.486 295.09 453.459 295.078C453.05 294.911 452.74 294.562 452.622 294.137C452.504 293.711 452.584 293.254 452.846 292.898C467.93 272.442 469.581 254.945 458.545 232.506C450.062 215.251 449.338 207.605 449.452 205.005C443.347 200.808 436.258 198.497 428.852 198.292C427.413 200.46 422.323 206.21 405.3 215.151C383.151 226.784 374.176 241.892 374.318 267.303C374.321 267.748 374.117 268.167 373.768 268.44C373.418 268.714 372.961 268.812 372.531 268.703C372.51 268.698 369.751 268.051 367.769 269.459C366.526 270.342 365.786 271.91 365.57 274.12C365.424 275.636 365.583 276.669 366.039 277.19C366.67 277.913 368.217 277.969 370.008 278.036C372.328 278.122 375.215 278.229 377.631 279.983C378.672 280.741 379.593 281.531 380.57 282.366C384.648 285.856 389.721 290.199 408.315 296.261C426.902 302.319 433.566 301.801 438.919 301.383C440.197 301.284 441.404 301.19 442.683 301.19ZM453.406 308.668C451.629 308.668 449.99 307.563 448.397 306.49C446.63 305.298 444.802 304.065 442.689 304.061C442.687 304.061 442.684 304.061 442.682 304.061C441.515 304.061 440.362 304.15 439.143 304.246C433.535 304.682 426.556 305.225 407.425 298.991C388.289 292.752 382.973 288.202 378.703 284.547C377.77 283.749 376.891 282.995 375.943 282.304C374.234 281.064 372.032 280.983 369.903 280.905C367.653 280.822 365.325 280.735 363.879 279.082C362.867 277.927 362.486 276.213 362.713 273.843C363.015 270.753 364.166 268.485 366.133 267.1C367.935 265.831 370.016 265.628 371.451 265.69C371.71 240.341 381.501 224.408 403.965 212.609C423.819 202.181 426.687 196.33 426.714 196.273C426.948 195.763 427.472 195.407 428.032 195.407C428.035 195.407 428.038 195.407 428.04 195.407C436.622 195.462 444.841 198.141 451.807 203.153C452.286 203.497 452.505 204.097 452.361 204.669C452.357 204.696 451.227 211.114 461.122 231.239C472.314 253.996 470.835 272.64 456.113 293.283C457.311 294.084 458.868 295.469 459.574 297.557C460.347 299.834 459.936 302.345 458.356 305.017C457.147 307.066 455.831 308.227 454.334 308.565C454.021 308.636 453.711 308.668 453.406 308.668Z" fill="#2C3342"/>
<path d="M450.968 205.754C450.662 205.754 450.352 205.655 450.091 205.454C449.464 204.968 449.348 204.067 449.834 203.44C449.853 203.414 452.065 200.468 450.586 198.506C448.8 196.14 435.62 191.926 431.27 192.357C430.133 192.465 429.785 192.966 429.671 193.13C428.996 194.099 429.268 195.91 429.417 196.467C429.621 197.231 429.168 198.018 428.406 198.225C427.638 198.432 426.856 197.985 426.647 197.221C426.551 196.872 425.756 193.746 427.304 191.504C427.862 190.696 428.956 189.693 430.999 189.499C435.982 189.027 450.359 193.44 452.878 196.777C455.679 200.492 452.252 205.006 452.104 205.197C451.822 205.562 451.398 205.754 450.968 205.754Z" fill="#2C3342"/>
<path d="M450.218 196.39C449.919 196.39 449.614 196.296 449.355 196.101C448.723 195.623 448.596 194.723 449.074 194.09C451.917 190.321 455.607 187.129 459.744 184.858C460.911 184.219 462.115 183.649 463.28 183.098C464.962 182.302 466.55 181.551 468.037 180.606C469.999 179.361 472.477 177.263 473.153 174.336C473.674 172.085 472.648 169.07 470.342 168.339C468.744 167.833 466.91 168.411 464.969 169.021C464.643 169.124 464.317 169.227 463.993 169.323C460.288 170.434 457.38 170.018 455.586 168.122C453.918 166.36 453.87 164.017 453.828 161.951C453.805 160.865 453.784 159.838 453.556 158.942C453.117 157.229 451.74 155.787 450.051 155.266C448.36 154.745 446.413 155.168 445.086 156.338C444.267 157.061 443.649 158.063 442.994 159.121C442.786 159.46 442.578 159.798 442.361 160.129C441.479 161.483 440.048 163.357 437.807 163.984C435.615 164.599 433.123 163.879 430.603 161.905C430.128 161.532 429.666 161.136 429.205 160.74C428.063 159.761 426.986 158.837 425.753 158.331C424.397 157.776 422.483 157.959 421.902 159.11C421.466 159.969 421.782 161.244 422.104 162.258C423.678 167.207 426.446 171.568 429.377 176.186C432.11 180.49 434.935 184.942 436.667 189.884C436.93 190.631 436.536 191.45 435.787 191.713C435.036 191.975 434.221 191.58 433.958 190.833C432.335 186.202 429.599 181.892 426.954 177.725C424.053 173.157 421.055 168.432 419.368 163.128C418.879 161.593 418.435 159.6 419.342 157.812C420.71 155.113 424.228 154.606 426.84 155.674C428.503 156.356 429.811 157.477 431.073 158.561C431.504 158.93 431.933 159.298 432.375 159.645C433.609 160.612 435.418 161.674 437.033 161.22C438.028 160.94 438.958 160.096 439.958 158.561C440.16 158.25 440.355 157.932 440.552 157.615C441.287 156.424 442.046 155.192 443.186 154.186C445.245 152.368 448.27 151.716 450.894 152.522C453.519 153.329 455.656 155.571 456.336 158.232C456.648 159.449 456.672 160.69 456.697 161.892C456.734 163.663 456.765 165.192 457.672 166.151C458.999 167.552 461.685 167.018 463.171 166.573C463.48 166.48 463.793 166.381 464.108 166.283C466.279 165.598 468.743 164.823 471.208 165.602C475.186 166.863 476.766 171.453 475.951 174.983C475.055 178.857 471.99 181.497 469.577 183.029C467.94 184.071 466.194 184.895 464.507 185.693C463.381 186.226 462.216 186.777 461.125 187.376C457.339 189.452 453.966 192.372 451.366 195.818C451.083 196.193 450.654 196.39 450.218 196.39Z" fill="#2C3342"/>
<path d="M48.4968 315.061L48.4968 315.061L7.65849 218.93C5.40984 213.637 6.42157 207.762 9.78514 203.558L9.38597 203.727C9.38593 203.727 9.38589 203.727 9.38584 203.727C2.62947 206.598 -0.534058 214.434 2.3362 221.192C2.33621 221.192 2.33621 221.192 2.33622 221.192L43.1749 317.323C46.0453 324.079 53.8817 327.242 60.6384 324.372C60.6384 324.372 60.6385 324.372 60.6385 324.372L61.0376 324.203C55.6764 323.705 50.7457 320.354 48.4968 315.061Z" fill="white" stroke="black" stroke-width="1.8"/>
<path d="M82.3441 271.88C83.3592 271.907 84.2272 271.883 84.9092 271.796L84.9111 271.796C85.5965 271.706 86.2304 271.553 86.7509 271.341C87.3157 271.112 87.8063 270.794 88.0759 270.374L88.0769 270.372C88.3444 269.951 88.3376 269.499 88.154 269.045L88.153 269.043C88.0422 268.773 87.8659 268.556 87.6243 268.4L87.6167 268.395L87.6166 268.395C87.3658 268.239 87.0546 268.131 86.7091 268.059L86.7081 268.059C86.3258 267.981 85.6008 267.914 84.5829 267.856L84.5817 267.856C83.5752 267.801 82.8387 267.679 82.3023 267.494L82.2977 267.493L82.2977 267.493C81.7506 267.31 81.2591 267.03 80.8298 266.663L80.8281 266.662C80.409 266.307 80.0619 265.813 79.8054 265.179L79.8052 265.179C79.322 263.989 79.3593 262.911 79.8729 261.932C80.1698 261.369 80.6127 260.864 81.2157 260.429L81.5342 260.199L81.3865 259.836L80.6191 257.945L82.5301 257.169L83.2446 258.93L83.4098 259.337L83.8346 259.226C84.1831 259.135 84.5241 259.063 84.8634 259.018C85.5408 258.929 86.285 258.893 87.0739 258.908L87.0534 261.381C86.2547 261.378 85.589 261.414 85.0766 261.484L85.0702 261.485L85.0702 261.485C84.5562 261.562 84.0625 261.69 83.6027 261.877C83.1102 262.076 82.6953 262.365 82.482 262.791C82.2793 263.187 82.2764 263.593 82.4432 264.004L82.4434 264.004C82.545 264.253 82.697 264.459 82.8986 264.611L82.9059 264.617L82.9134 264.622C83.1314 264.775 83.4046 264.878 83.7085 264.944L83.712 264.944L83.712 264.944C83.9602 264.997 84.5292 265.07 85.9105 265.153L85.9107 265.153C87.4686 265.245 88.5275 265.511 89.2022 265.903C89.8885 266.304 90.423 266.938 90.7802 267.817C91.2712 269.027 91.2135 270.139 90.6376 271.166L82.3441 271.88ZM82.3441 271.88L83.3692 274.407C84.4041 274.473 85.4966 274.329 86.6236 273.97L87.0645 273.83L87.2385 274.259L87.9151 275.926L89.8261 275.15L89.0703 273.288L88.9233 272.926L89.2391 272.696C89.8604 272.243 90.3215 271.728 90.6374 271.166L82.3441 271.88Z" fill="white" stroke="black"/>
<path d="M67.2158 268.726C67.0834 268.983 67.0776 269.236 67.1947 269.525L74.926 276.874C75.5008 275.848 75.5585 274.735 75.0685 273.527C74.7116 272.647 74.1763 272.014 73.4907 271.613C72.8163 271.219 71.7578 270.955 70.1988 270.861C68.8184 270.779 68.2482 270.706 68 270.654L68 270.654L67.9952 270.653C67.6916 270.586 67.4185 270.483 67.2009 270.33L67.195 270.326L67.1893 270.322C66.9854 270.17 66.8326 269.963 66.7314 269.713L66.7312 269.713C66.5655 269.303 66.5658 268.898 66.7697 268.5M67.2158 268.726L66.7681 268.503C66.7686 268.502 66.7692 268.501 66.7697 268.5M67.2158 268.726C67.3517 268.453 67.6388 268.228 68.0779 268.05L67.2158 268.726ZM66.7697 268.5C66.9836 268.073 67.3991 267.785 67.8901 267.586M66.7697 268.5L67.8901 267.586M67.8901 267.586C68.3503 267.399 68.8434 267.272 69.3588 267.195L69.3588 267.194L69.3648 267.194C69.8758 267.123 70.5424 267.086 71.3408 267.091L71.3621 264.616C70.5739 264.602 69.8291 264.639 69.1499 264.727C68.8114 264.772 68.47 264.843 68.1222 264.934L67.6973 265.046L67.5321 264.639L66.818 262.879L64.907 263.654L65.6743 265.544L65.8219 265.908L65.5039 266.137C64.9006 266.573 64.4581 267.078 64.1603 267.642C63.6472 268.62 63.6096 269.698 64.0923 270.888L64.0923 270.888C64.3495 271.522 64.697 272.016 65.1166 272.372L65.1176 272.373C65.5469 272.739 66.0387 273.02 66.5853 273.202L66.5853 273.202L66.5896 273.204C67.1262 273.389 67.8626 273.509 68.8706 273.565L68.8713 273.565C69.888 273.624 70.6142 273.69 70.9966 273.769L70.896 274.259M67.8901 267.586L69.1332 277.009C69.7901 276.923 70.3792 276.778 70.8512 276.588C71.376 276.374 71.7549 276.106 71.9433 275.812C72.1052 275.558 72.1167 275.283 71.9777 274.942C71.9054 274.763 71.794 274.628 71.6401 274.53C71.4564 274.415 71.206 274.322 70.896 274.259M70.896 274.259L70.9958 273.769C71.3437 273.84 71.6554 273.95 71.9051 274.106L71.9051 274.106L71.9102 274.109C72.1533 274.265 72.3307 274.482 72.4408 274.753C72.6261 275.208 72.6329 275.659 72.3653 276.081L72.3643 276.082C72.0947 276.503 71.6041 276.821 71.0397 277.051L71.0384 277.051C70.5176 277.262 69.8854 277.415 69.1982 277.505L69.1974 277.505C68.5146 277.593 67.6459 277.616 66.6319 277.59M70.896 274.259C70.5549 274.189 69.8647 274.123 68.8427 274.065C67.8155 274.007 67.0265 273.883 66.4267 273.677C65.8189 273.473 65.2708 273.161 64.793 272.753C64.3019 272.336 63.9111 271.771 63.629 271.075L66.6319 277.59M66.6319 277.59L67.6569 280.115C68.6914 280.182 69.7835 280.039 70.9121 279.68L71.3529 279.54L71.5269 279.969L72.2036 281.636L74.1146 280.86L73.3587 278.998L73.2118 278.636L73.5272 278.406C74.1475 277.953 74.6098 277.437 74.9257 276.875L66.6319 277.59Z" fill="white" stroke="black"/>
<path d="M52.0737 275.821L52.0744 275.822C52.1759 276.071 52.3282 276.277 52.5312 276.43L52.5372 276.434L52.5434 276.438C52.7611 276.592 53.0343 276.694 53.3377 276.761L53.3426 276.762L53.3426 276.762C53.5907 276.814 54.1609 276.887 55.5414 276.97L52.0737 275.821ZM52.0737 275.821C51.908 275.411 51.909 275.006 52.1125 274.609M52.0737 275.821L52.1125 274.609M60.4111 279.635L60.4112 279.635C60.9018 280.843 60.8439 281.956 60.2679 282.983L60.2679 282.983C59.9524 283.545 59.4908 284.061 58.8699 284.514L58.5543 284.744L58.7012 285.106L59.4569 286.968L57.546 287.743L56.8696 286.076L56.6955 285.647L56.2543 285.787C55.1262 286.147 54.0337 286.29 52.9996 286.223L51.9744 283.698C52.9886 283.724 53.857 283.701 54.5401 283.613L54.5411 283.613C55.2274 283.523 55.8605 283.37 56.3813 283.159L56.3827 283.159C56.9465 282.929 57.4372 282.611 57.7068 282.19L57.7083 282.188C57.9748 281.767 57.9686 281.317 57.7838 280.862L60.4111 279.635ZM60.4111 279.635C60.0544 278.755 59.5195 278.122 58.8331 277.721L60.4111 279.635ZM56.6842 273.199C55.8852 273.194 55.2189 273.231 54.7071 273.302L54.7009 273.303L54.7009 273.303C54.186 273.38 53.6932 273.507 53.2328 273.694L56.6842 273.199ZM56.6842 273.199L56.7051 270.724C55.916 270.711 55.1714 270.747 54.4928 270.835C54.154 270.88 53.813 270.951 53.4652 271.042L53.0404 271.154L52.8752 270.747L52.1606 268.987L50.2499 269.763L51.017 271.652L51.1645 272.016L50.8466 272.246C50.2433 272.682 49.8007 273.186 49.5028 273.75C48.9898 274.728 48.9525 275.806 49.4353 276.996L49.4353 276.996C49.6925 277.63 50.04 278.124 50.4593 278.48L50.4601 278.481C50.8894 278.847 51.3814 279.128 51.9279 279.31L51.9279 279.31L51.9322 279.312C52.4691 279.497 53.2056 279.617 54.2133 279.674L54.2139 279.674C55.2313 279.732 55.9568 279.799 56.3391 279.877L56.2385 280.367L56.3383 279.877C56.6861 279.948 56.9978 280.058 57.2475 280.214L57.2475 280.214L57.2527 280.217C57.4964 280.373 57.6735 280.59 57.7837 280.862L56.6842 273.199ZM56.7431 273.698L56.7431 273.699M56.7431 273.698L57.18 273.702L56.7431 273.699M56.7431 273.698L56.7431 273.699M56.7431 273.698L54.7751 273.797M56.7431 273.699C55.9307 273.693 55.2686 273.729 54.7751 273.797M54.7751 273.797C54.2934 273.869 53.8395 273.988 53.4205 274.158L54.7751 273.797ZM52.1125 274.609C52.326 274.181 52.7419 273.893 53.2326 273.694L52.1125 274.609ZM58.833 277.721C58.1587 277.327 57.1 277.063 55.5416 276.97L58.833 277.721Z" fill="white" stroke="black"/>
<path d="M19.935 205.695L18.6857 206.226C16.8797 206.993 15.4766 208.426 14.7364 210.26C13.9958 212.095 14.0102 214.1 14.7782 215.906L55.6165 312.037C56.384 313.843 57.8168 315.246 59.651 315.988C61.487 316.728 63.4926 316.711 65.2968 315.945L101.088 300.74C102.902 299.969 104.307 298.536 105.046 296.706C105.783 294.876 105.766 292.871 104.996 291.059L64.1578 194.928C62.5658 191.181 58.2222 189.428 54.4776 191.02L53.2372 191.548C53.549 192.873 53.4462 194.259 52.9264 195.546C52.2616 197.193 50.993 198.484 49.3552 199.18L28.1233 208.2C26.4869 208.893 24.6774 208.911 23.0292 208.246C21.7414 207.727 20.6725 206.839 19.935 205.695ZM62.4312 318.83C61.2016 318.83 59.969 318.592 58.791 318.117C56.3876 317.145 54.5094 315.307 53.5024 312.934L12.6641 216.804C11.657 214.433 11.6363 211.805 12.6067 209.401C13.5769 206.998 15.4165 205.119 17.7872 204.112L20.0032 203.17C20.2835 203.052 20.6007 203.048 20.8824 203.163C21.1646 203.277 21.3907 203.497 21.5095 203.779C22.4489 205.99 25.0129 207.024 27.2248 206.086L48.4572 197.065C49.5307 196.609 50.3619 195.764 50.797 194.686C51.2321 193.608 51.22 192.423 50.7643 191.35C50.6454 191.07 50.6427 190.754 50.7566 190.472C50.8706 190.189 51.0917 189.964 51.3721 189.845L53.5791 188.906C58.4945 186.822 64.1856 189.12 66.2715 194.03L107.11 290.161C108.12 292.537 108.143 295.167 107.176 297.565C106.208 299.965 104.365 301.843 101.986 302.854L66.1948 318.058C64.9859 318.571 63.7101 318.83 62.4312 318.83Z" fill="#2C3342"/>
<path d="M62.5478 199.924C61.9512 199.924 61.4479 199.462 61.4035 198.858C61.229 196.457 59.3302 194.223 56.9877 193.664C56.3709 193.516 55.9901 192.897 56.1377 192.279C56.2857 191.662 56.9096 191.285 57.5216 191.429C60.85 192.225 63.4458 195.278 63.6943 198.691C63.7406 199.324 63.2651 199.874 62.6326 199.92C62.6039 199.922 62.5756 199.924 62.5478 199.924Z" fill="#2C3342"/>
<path d="M63.7083 314.993C60.1017 314.993 56.694 312.594 55.5097 309.171C55.3019 308.571 55.6196 307.917 56.2189 307.71C56.819 307.503 57.4722 307.82 57.6795 308.42C58.5662 310.981 61.2968 312.834 63.9802 312.689C64.6085 312.658 65.1514 313.15 65.181 313.784C65.2106 314.417 64.7212 314.954 64.0873 314.984C63.9609 314.99 63.8339 314.993 63.7083 314.993Z" fill="#2C3342"/>
<path d="M64.8405 312.944C63.5903 312.944 62.3442 312.47 61.4263 311.61C60.9639 311.177 60.9396 310.45 61.373 309.987C61.8058 309.525 62.533 309.501 62.9963 309.935C63.6109 310.509 64.5381 310.768 65.3622 310.594C65.9857 310.463 66.5922 310.86 66.7235 311.48C66.8546 312.1 66.4585 312.71 65.8377 312.841C65.5088 312.911 65.1747 312.944 64.8405 312.944Z" fill="#2C3342"/>
<path d="M47.4123 264.254C46.9661 264.254 46.5421 263.992 46.3559 263.556L34.187 235.063C34.0672 234.783 34.0636 234.467 34.1771 234.185C34.2911 233.902 34.5117 233.676 34.7921 233.556L44.3804 229.461C44.9636 229.213 45.6382 229.484 45.8872 230.067L58.0552 258.56C58.3047 259.143 58.0336 259.817 57.4501 260.066C56.8665 260.317 56.1923 260.044 55.9433 259.461L44.2261 232.025L36.7502 235.217L48.4674 262.655C48.7173 263.238 48.4463 263.913 47.8622 264.162C47.7156 264.224 47.5626 264.254 47.4123 264.254Z" fill="#2C3342"/>
<path d="M59.1462 257.799L51.9318 240.905L61.5196 236.811L68.734 253.706" fill="#2C3342"/>
<path d="M71.524 254.258C71.0773 254.258 70.6536 253.996 70.4675 253.56L55.0315 217.415C54.7816 216.832 55.0526 216.158 55.6365 215.909L65.224 211.814C65.5034 211.694 65.8206 211.691 66.1027 211.803C66.3854 211.918 66.6115 212.139 66.7308 212.419L82.1669 248.564C82.4173 249.147 82.1463 249.822 81.5629 250.071C80.9807 250.321 80.3043 250.049 80.0563 249.466L65.0702 214.377L57.5941 217.569L72.5793 252.658C72.8285 253.242 72.5575 253.917 71.9742 254.166C71.8272 254.228 71.6744 254.258 71.524 254.258Z" fill="#2C3342"/>
<path d="M32.843 233.011C32.443 233.011 32.054 232.802 31.8427 232.428C31.5306 231.876 31.7243 231.176 32.2761 230.864C42.0119 225.35 49.8382 216.176 53.7475 205.692C53.9692 205.098 54.6317 204.796 55.2251 205.018C55.8191 205.239 56.1214 205.901 55.8998 206.494C51.8043 217.476 43.6067 227.087 33.4078 232.862C33.2289 232.963 33.0346 233.011 32.843 233.011Z" fill="#2C3342"/>
<path d="M57.8068 211.091C57.403 211.091 57.011 210.879 56.8015 210.5L54.6924 206.698L49.2493 208.816C48.6607 209.048 47.9929 208.754 47.7627 208.163C47.5321 207.572 47.8251 206.907 48.4159 206.677L54.7933 204.193C55.328 203.985 55.9358 204.203 56.2139 204.706L58.8098 209.386C59.118 209.941 58.917 210.64 58.3626 210.948C58.1868 211.045 57.9952 211.091 57.8068 211.091Z" fill="#2C3342"/>
<path d="M59.1428 223.263C59.0481 223.263 58.9517 223.251 58.8552 223.226C58.2411 223.067 57.8714 222.442 58.0302 221.827L59.729 215.248C59.8878 214.635 60.5123 214.267 61.1281 214.424C61.7422 214.582 62.1114 215.208 61.953 215.823L60.2539 222.401C60.1198 222.919 59.6541 223.263 59.1428 223.263Z" fill="#2C3342"/>
<path d="M62.0468 230.553C61.9553 230.553 61.8619 230.542 61.7696 230.519C61.1536 230.366 60.7782 229.744 60.9307 229.128L64.6732 214.015C64.8252 213.399 65.4474 213.023 66.0633 213.175C66.6792 213.328 67.0546 213.951 66.9026 214.566L63.1601 229.681C63.0305 230.203 62.5617 230.553 62.0468 230.553Z" fill="#2C3342"/>
<path d="M64.774 237.935C64.648 237.935 64.5197 237.915 64.3945 237.871C63.7956 237.661 63.4803 237.006 63.6898 236.408L68.4608 222.773C68.6703 222.175 69.3237 221.861 69.9243 222.068C70.5226 222.279 70.8384 222.933 70.6294 223.533L65.8577 237.166C65.6923 237.639 65.2482 237.935 64.774 237.935Z" fill="#2C3342"/>
<path d="M68.1688 245.565C68.024 245.565 67.876 245.537 67.7328 245.479C67.1461 245.238 66.8663 244.566 67.1075 243.979L72.4449 231.009C72.6861 230.424 73.3567 230.142 73.9436 230.385C74.5292 230.626 74.8094 231.297 74.5683 231.883L69.2319 244.854C69.0493 245.297 68.621 245.565 68.1688 245.565Z" fill="#2C3342"/>
<path d="M70.905 251.719C70.75 251.719 70.5938 251.687 70.4433 251.623C69.8634 251.366 69.5993 250.689 69.8542 250.108L74.9633 238.474C75.2193 237.894 75.898 237.629 76.4768 237.884C77.0579 238.14 77.322 238.816 77.0659 239.397L71.9569 251.032C71.7674 251.463 71.3471 251.719 70.905 251.719Z" fill="#2C3342"/>
<path d="M76.0979 252.516C75.9268 252.516 75.7523 252.478 75.588 252.396C75.0196 252.114 74.7888 251.425 75.0701 250.858L77.9146 245.123C78.1971 244.555 78.8861 244.321 79.4545 244.604C80.023 244.886 80.2538 245.575 79.9725 246.142L77.128 251.877C76.927 252.281 76.5205 252.516 76.0979 252.516Z" fill="#2C3342"/>
<path d="M37.9007 239.483C37.7644 239.483 37.6266 239.46 37.4921 239.408C36.8991 239.182 36.6016 238.52 36.8273 237.926L38.779 232.807C39.0046 232.213 39.6695 231.918 40.2606 232.142C40.8532 232.368 41.1511 233.032 40.925 233.624L38.9741 238.745C38.7987 239.202 38.3632 239.483 37.9007 239.483Z" fill="#2C3342"/>
<path d="M40.0405 246.332C39.8795 246.332 39.7171 246.299 39.5614 246.226C38.9854 245.962 38.7329 245.28 38.9976 244.704L44.4769 232.787C44.742 232.211 45.422 231.959 46.0002 232.225C46.5762 232.49 46.8283 233.171 46.5642 233.747L41.0848 245.664C40.891 246.084 40.4751 246.332 40.0405 246.332Z" fill="#2C3342"/>
<path d="M43.8323 254.629C43.6671 254.629 43.5007 254.594 43.3419 254.519C42.7691 254.248 42.5233 253.563 42.7942 252.99C43.7523 250.962 44.6361 249.133 45.5202 247.303C46.4065 245.467 47.2934 243.634 48.2538 241.6C48.5252 241.027 49.2093 240.781 49.783 241.052C50.3558 241.323 50.6017 242.007 50.3307 242.58C49.3668 244.621 48.4777 246.462 47.5882 248.303C46.7076 250.126 45.8262 251.95 44.8711 253.971C44.6746 254.385 44.262 254.629 43.8323 254.629Z" fill="#2C3342"/>
<path d="M47.0342 261.61C46.8673 261.61 46.6974 261.574 46.5367 261.496C45.9653 261.22 45.7253 260.534 46.0002 259.963L51.1629 249.241C51.4383 248.668 52.1269 248.429 52.6952 248.703C53.2672 248.979 53.5072 249.666 53.2322 250.236L48.0695 260.96C47.8712 261.371 47.4617 261.61 47.0342 261.61Z" fill="#2C3342"/>
<path d="M52.3494 262.86C52.139 262.86 51.926 262.803 51.7353 262.682C51.2002 262.342 51.0414 261.633 51.3809 261.096L54.2792 256.528C54.6192 255.993 55.3293 255.833 55.864 256.174C56.3996 256.513 56.5584 257.224 56.2184 257.759L53.3202 262.327C53.1012 262.672 52.7298 262.86 52.3494 262.86Z" fill="#2C3342"/>
<path d="M57.3466 185.033C55.6824 185.033 53.9921 185.36 52.3665 186.05L16.5742 201.256C13.4383 202.588 11.0061 205.068 9.72633 208.238C8.44649 211.408 8.47566 214.881 9.80752 218.017L50.6466 314.149C53.4019 320.635 60.9204 323.67 67.4081 320.915L103.2 305.709C106.336 304.377 108.767 301.897 110.048 298.728C111.327 295.557 111.298 292.085 109.966 288.949L69.1274 192.816C67.0627 187.955 62.3221 185.033 57.3466 185.033ZM62.4316 324.802C56.3377 324.802 50.5332 321.224 48.0046 315.27L7.16585 219.14C5.53347 215.298 5.49752 211.044 7.06399 207.163C8.63126 203.283 11.6099 200.245 15.4519 198.613L51.2438 183.408C55.0858 181.776 59.3397 181.741 63.2203 183.307C67.1013 184.873 70.138 187.852 71.7698 191.694L112.609 287.827C114.24 291.668 114.277 295.921 112.71 299.803C111.143 303.684 108.164 306.719 104.322 308.351L68.5309 323.556C66.5402 324.403 64.4695 324.802 62.4316 324.802Z" fill="black"/>
<path d="M60.094 300.94C60.735 302.449 61.9399 303.564 63.3605 304.145C64.7771 304.717 66.41 304.753 67.928 304.109L93.0429 293.44C96.07 292.154 97.4859 288.628 96.1997 285.601C95.5589 284.091 94.3543 282.976 92.9373 282.404C91.5202 281.832 89.878 281.799 88.3691 282.44L63.2546 293.109C60.2281 294.395 58.8115 297.921 60.094 300.94Z" fill="#2C3342"/>
<path d="M65.4402 178.496C65.3146 178.496 65.1871 178.479 65.0602 178.445C64.2954 178.236 63.8455 177.447 64.0545 176.682L68.809 159.296C69.0182 158.531 69.8094 158.08 70.572 158.29C71.3368 158.499 71.7869 159.288 71.5779 160.053L66.8232 177.439C66.6491 178.077 66.0709 178.496 65.4402 178.496Z" fill="#2C3342"/>
<path d="M70.9302 182.534C70.5283 182.534 70.1275 182.365 69.8439 182.038C69.3249 181.438 69.3903 180.531 69.9897 180.012L77.2083 173.769C77.8089 173.25 78.7161 173.317 79.234 173.916C79.7519 174.515 79.6864 175.421 79.087 175.94L71.8684 182.184C71.5974 182.419 71.2621 182.534 70.9302 182.534Z" fill="#2C3342"/>
<path d="M58.1724 178.718C57.3797 178.718 56.7369 178.075 56.7369 177.283V167.534C56.7369 166.741 57.3797 166.099 58.1724 166.099C58.9654 166.099 59.6078 166.741 59.6078 167.534V177.283C59.6078 178.075 58.9654 178.718 58.1724 178.718Z" fill="#2C3342"/>
<path d="M51.5957 180.559C50.9884 180.559 50.425 180.171 50.2294 179.562L47.8618 172.183C47.6196 171.428 48.0349 170.62 48.7903 170.378C49.5404 170.136 50.3528 170.55 50.5959 171.305L52.9634 178.685C53.2053 179.439 52.7895 180.248 52.0349 180.49C51.8891 180.537 51.7411 180.559 51.5957 180.559Z" fill="#2C3342"/>
<path d="M42.4713 267.28C41.9128 267.28 41.3825 266.953 41.1507 266.41L23.3131 224.64C23.0013 223.91 23.34 223.067 24.0694 222.756C24.7987 222.446 25.6416 222.784 25.9529 223.513L43.2365 263.983L82.2093 248.108C82.9454 247.806 83.7814 248.162 84.0812 248.896C84.3797 249.63 84.0272 250.468 83.2934 250.767L43.0123 267.174C42.8351 267.247 42.6516 267.28 42.4713 267.28Z" fill="#2C3342"/>
<path d="M226.222 95.2236H207.389V42.6532H226.222V95.2236Z" fill="#2C3342"/>
<path d="M275.39 95.2236H256.557V23.2885H275.39V95.2236Z" fill="#5EC0DF"/>
<path d="M210.893 70.2872C210.889 70.2872 210.886 70.2872 210.882 70.2872C210.248 70.2815 209.738 69.7636 209.744 69.1286L209.944 46.707C209.95 46.0719 210.425 45.5552 211.103 45.5678C211.737 45.5736 212.246 46.0926 212.241 46.7265L212.041 69.1492C212.035 69.7796 211.522 70.2872 210.893 70.2872Z" fill="#2C3342"/>
<path d="M213.979 69.9174C213.357 69.9174 212.846 69.4201 212.832 68.7954L212.709 63.498C212.693 62.8641 213.196 62.3382 213.83 62.3233C214.447 62.2785 214.99 62.8102 215.005 63.4452L215.128 68.7426C215.143 69.3753 214.64 69.9024 214.006 69.9162C213.997 69.9173 213.987 69.9174 213.979 69.9174Z" fill="#2C3342"/>
<path d="M271.246 95.5417C271.245 95.5417 271.244 95.5417 271.244 95.5417C270.609 95.5395 270.097 95.025 270.098 94.3899L270.167 65.3171C270.168 64.6844 270.683 64.1722 271.315 64.1722C271.317 64.1722 271.318 64.1722 271.318 64.1722C271.953 64.1733 272.465 64.6889 272.464 65.3228L272.395 94.3957C272.394 95.0284 271.878 95.5417 271.246 95.5417Z" fill="#2C3342"/>
<path d="M232.621 44.3574C232.314 44.3574 232.01 44.2357 231.783 43.9945C231.349 43.5329 231.372 42.806 231.834 42.3719L237.493 37.0573C237.957 36.6244 238.684 36.6474 239.116 37.109C239.551 37.5718 239.528 38.2987 239.065 38.7316L233.407 44.0462C233.184 44.2541 232.902 44.3574 232.621 44.3574Z" fill="#2C3342"/>
<path d="M232.501 50.6332C232.231 50.6332 231.96 50.539 231.741 50.3461C231.266 49.9258 231.221 49.2 231.641 48.7246C235.294 44.5917 239.31 40.7229 243.576 37.2285C244.065 36.8242 244.791 36.8977 245.192 37.3881C245.595 37.8784 245.521 38.6019 245.032 39.0038C240.861 42.4225 236.935 46.204 233.361 50.245C233.135 50.5023 232.819 50.6332 232.501 50.6332Z" fill="#2C3342"/>
<path d="M232.572 56.6263C232.272 56.6263 231.972 56.5081 231.746 56.2738C231.305 55.8179 231.318 55.091 231.775 54.6512L249.712 37.357C250.167 36.9183 250.894 36.931 251.335 37.3857C251.776 37.8428 251.763 38.5697 251.305 39.0106L233.369 56.3036C233.147 56.5184 232.86 56.6263 232.572 56.6263Z" fill="#2C3342"/>
<path d="M232.434 65.572C232.099 65.572 231.767 65.4262 231.541 65.1449C231.141 64.6522 231.217 63.9288 231.711 63.5303L249.137 49.4331C249.632 49.0334 250.353 49.1116 250.752 49.6042C251.151 50.0968 251.075 50.8203 250.582 51.2188L233.156 65.3159C232.942 65.4882 232.688 65.572 232.434 65.572Z" fill="#2C3342"/>
<path d="M232.68 72.9904C232.336 72.9904 231.995 72.8365 231.77 72.5425C231.383 72.0395 231.476 71.3195 231.978 70.9325L249.101 57.7483C249.602 57.3624 250.325 57.4566 250.711 57.9584C251.098 58.4614 251.005 59.1814 250.502 59.5695L233.38 72.7515C233.171 72.9123 232.925 72.9904 232.68 72.9904Z" fill="#2C3342"/>
<path d="M232.541 81.718C232.208 81.718 231.879 81.5756 231.651 81.2989C231.251 80.8085 231.321 80.0851 231.812 79.6832L249.947 64.8085C250.437 64.4032 251.161 64.4778 251.563 64.967C251.964 65.4573 251.893 66.1808 251.402 66.5827L233.267 81.4585C233.055 81.6331 232.796 81.718 232.541 81.718Z" fill="#2C3342"/>
<path d="M232.274 89.623C231.911 89.623 231.554 89.4519 231.331 89.1315C230.968 88.6102 231.097 87.8948 231.617 87.5331L249.845 74.8369C250.365 74.4728 251.079 74.6014 251.443 75.1216C251.805 75.6418 251.678 76.3584 251.157 76.7201L232.93 89.4175C232.73 89.5564 232.5 89.623 232.274 89.623Z" fill="#2C3342"/>
<path d="M232.95 95.2052C232.557 95.2052 232.175 95.0042 231.961 94.6425C231.639 94.0959 231.818 93.392 232.363 93.0681L250.141 82.5366C250.689 82.2139 251.393 82.3953 251.714 82.9397C252.037 83.4851 251.858 84.1891 251.311 84.5129L233.535 95.0444C233.351 95.1535 233.149 95.2052 232.95 95.2052Z" fill="#2C3342"/>
<path d="M242.136 95.6737C241.765 95.6737 241.401 95.4957 241.181 95.1638C240.827 94.6368 240.969 93.9236 241.496 93.5711L249.707 88.0831C250.236 87.7305 250.948 87.8741 251.3 88.4012C251.652 88.9283 251.51 89.6414 250.983 89.994L242.773 95.4808C242.577 95.6117 242.357 95.6737 242.136 95.6737Z" fill="#2C3342"/>
<path d="M284.795 96.6591H197.574C196.782 96.6591 196.139 96.0171 196.139 95.2236V11.9164C196.139 11.1229 196.782 10.4809 197.574 10.4809C198.368 10.4809 199.01 11.1229 199.01 11.9164V93.7882H284.795C285.587 93.7882 286.23 94.4313 286.23 95.2236C286.23 96.0171 285.587 96.6591 284.795 96.6591Z" fill="#2C3342"/>
<path d="M233.306 93.7882H249.268V38.5857H233.306V93.7882ZM250.704 96.6591H231.871C231.077 96.6591 230.435 96.0171 230.435 95.2236V37.1502C230.435 36.3579 231.077 35.7148 231.871 35.7148H250.704C251.496 35.7148 252.139 36.3579 252.139 37.1502V95.2236C252.139 96.0171 251.496 96.6591 250.704 96.6591Z" fill="#2C3342"/>
<path d="M201.028 30.6943C200.256 30.6943 199.618 30.0811 199.594 29.3036C199.569 28.5113 200.191 27.8487 200.985 27.8246C225.516 27.0632 249.326 17.8925 268.027 1.99813C268.631 1.48367 269.537 1.55834 270.05 2.16237C270.563 2.76755 270.491 3.67241 269.886 4.18572C250.69 20.4992 226.253 29.9135 201.073 30.6943C201.058 30.6943 201.042 30.6943 201.028 30.6943Z" fill="#2C3342"/>
<path d="M266.28 17.4606C266.143 17.4606 266.006 17.441 265.869 17.4009C265.109 17.1746 264.677 16.3754 264.902 15.6152L268.67 2.9638L253.222 3.69413C252.439 3.73432 251.759 3.11994 251.721 2.32873C251.684 1.53636 252.295 0.864567 253.088 0.826671L270.553 0.00101239C271.036 -0.0173613 271.465 0.182454 271.752 0.548779C272.039 0.915103 272.13 1.39744 271.998 1.84415L267.655 16.434C267.469 17.0575 266.898 17.4606 266.28 17.4606Z" fill="#2C3342"/>
<path d="M152.862 125.925C141.188 125.925 131.691 135.422 131.691 147.095C131.691 158.769 141.188 168.266 152.862 168.266C164.535 168.266 174.032 158.769 174.032 147.095C174.032 135.422 164.535 125.925 152.862 125.925ZM152.862 171.137C139.605 171.137 128.82 160.351 128.82 147.095C128.82 133.838 139.605 123.054 152.862 123.054C166.118 123.054 176.903 133.838 176.903 147.095C176.903 160.351 166.118 171.137 152.862 171.137Z" fill="#2C3342"/>
<path d="M138.354 144.892C138.354 144.892 145.489 155.187 150.465 162.12C150.465 162.12 165.52 138.488 177.321 132.07C177.321 132.07 165.25 136.67 149.753 149.707C149.753 149.707 146.089 145.559 138.354 144.892Z" fill="#5EC0DF"/>
<path d="M129.557 134.911C129.284 134.911 129.008 134.834 128.764 134.671L120.257 129.017C119.598 128.579 119.417 127.688 119.856 127.027C120.296 126.367 121.186 126.188 121.846 126.627L130.353 132.28C131.013 132.719 131.192 133.61 130.754 134.27C130.477 134.686 130.021 134.911 129.557 134.911Z" fill="#2C3342"/>
<path d="M119.875 139.936C119.123 139.936 118.493 139.352 118.445 138.591C118.394 137.8 118.996 137.118 119.787 137.067L125.447 136.711C126.25 136.667 126.921 137.264 126.971 138.054C127.021 138.845 126.42 139.527 125.629 139.577L119.967 139.933C119.936 139.935 119.906 139.936 119.875 139.936Z" fill="#2C3342"/>
<path d="M133.517 130.216C132.988 130.216 132.481 129.923 132.23 129.418L129.611 124.145C129.259 123.434 129.548 122.573 130.258 122.22C130.97 121.869 131.83 122.158 132.182 122.868L134.802 128.142C135.154 128.852 134.865 129.713 134.154 130.066C133.95 130.168 133.731 130.216 133.517 130.216Z" fill="#2C3342"/>
<path d="M224.385 479.348L137.656 472.043L128.575 553.667H233.139L224.385 479.348Z" fill="#5EC0DF"/>
<path d="M88.7149 416.611C88.445 418.224 87.8467 419.701 86.9969 420.979C83.5668 419.55 80.9646 418.394 79.6693 417.636C78.1581 416.753 74.3673 412.748 69.3284 406.998C71.8295 404.348 75.5605 402.949 79.4258 403.595C85.5867 404.627 89.7449 410.455 88.7149 416.611Z" fill="#5EC0DF"/>
<path d="M203.121 458.126C202.536 458.126 201.987 457.767 201.774 457.187C201.597 456.708 184.04 409.195 173.297 400.852C162.635 392.574 128.967 393.519 128.626 393.526C128.358 393.544 128.09 393.467 127.856 393.33C111.213 383.583 83.0615 368.561 78.3934 369.741C76.2333 370.286 74.1583 372.027 72.9778 374.284C72.1199 375.925 71.3483 378.551 72.5471 381.738C74.2306 386.212 104.447 405.189 123.099 416.101C123.783 416.502 124.013 417.38 123.613 418.065C123.212 418.75 122.333 418.979 121.648 418.579C113.447 413.781 72.4001 389.501 69.8611 382.749C68.6331 379.486 68.8368 376.007 70.4342 372.954C72.0051 369.95 74.7175 367.708 77.6906 366.957C84.7874 365.168 120.834 385.9 128.953 390.645C133.109 390.546 164.133 390.102 175.058 398.584C186.445 407.426 203.737 454.208 204.468 456.194C204.742 456.94 204.36 457.763 203.616 458.038C203.452 458.097 203.286 458.126 203.121 458.126Z" fill="#2C3342"/>
<path d="M150.578 463.808C149.93 463.808 149.342 463.366 149.184 462.71C149.157 462.603 146.538 452.049 139.645 445.755C135.256 441.748 114.592 433.546 99.5024 427.556C89.5531 423.605 81.6938 420.486 78.9423 418.875C72.8434 415.304 33.7017 366.322 17.156 345.428C15.9319 343.882 15.525 341.825 16.0663 339.925C16.6069 338.031 17.9715 336.565 19.812 335.905C24.261 334.304 31.2094 333.739 39.0425 340.137C51.9869 350.71 70.9452 373.814 71.7456 374.792C72.2486 375.406 72.1579 376.311 71.5435 376.812C70.9314 377.312 70.0265 377.223 69.5247 376.611C69.3295 376.373 49.9469 352.75 37.227 342.359C30.4334 336.812 24.5346 337.258 20.7837 338.606C19.8236 338.951 19.1109 339.719 18.8273 340.714C18.534 341.741 18.7449 342.81 19.4064 343.644C45.8473 377.035 75.7534 413.681 80.3927 416.397C82.9558 417.899 91.1149 421.138 100.561 424.887C117.55 431.631 136.804 439.274 141.582 443.636C149.133 450.532 151.862 461.57 151.974 462.036C152.16 462.807 151.686 463.582 150.915 463.768C150.802 463.794 150.689 463.808 150.578 463.808Z" fill="#2C3342"/>
<path d="M78.0409 369.784C77.771 369.784 77.4988 369.71 77.2565 369.551L67.3753 363.098C67.3054 363.052 67.2394 362.999 67.1779 362.941C58.9488 355.219 36.2613 334.95 30.1816 333.932C23.5783 332.837 21.7167 337.559 21.6404 337.761C21.3609 338.503 20.5302 338.879 19.7913 338.599C19.0494 338.318 18.6748 337.49 18.9548 336.749C19.8874 334.275 23.5303 329.904 30.655 331.102C38.6185 332.434 65.5442 357.474 69.0504 360.763L78.8275 367.147C79.4912 367.581 79.6773 368.471 79.2432 369.134C78.9687 369.556 78.5094 369.784 78.0409 369.784Z" fill="#2C3342"/>
<path d="M213.094 479.832C212.423 479.832 211.823 479.359 211.687 478.676L207.527 457.659L144.211 464.505L142.857 472.598C142.726 473.38 141.985 473.903 141.205 473.777C140.423 473.647 139.895 472.907 140.026 472.124L141.56 462.959C141.665 462.323 142.181 461.836 142.821 461.768L208.526 454.662C209.269 454.582 209.944 455.082 210.088 455.81L214.504 478.118C214.658 478.896 214.152 479.651 213.374 479.806C213.28 479.823 213.187 479.832 213.094 479.832Z" fill="#2C3342"/>
<path d="M110.652 394.01C110.032 397.718 106.522 400.222 102.814 399.602C99.1063 398.981 96.6029 395.472 97.223 391.764C97.8431 388.055 101.352 385.551 105.06 386.172C108.77 386.793 111.273 390.302 110.652 394.01Z" fill="#5EC0DF"/>
<path d="M220.92 508.09C220.831 508.09 220.741 508.079 220.65 508.057L142.16 489.214C141.544 489.066 141.164 488.446 141.312 487.829C141.461 487.212 142.082 486.837 142.697 486.981L221.187 505.824C221.803 505.972 222.183 506.592 222.035 507.209C221.909 507.736 221.438 508.09 220.92 508.09Z" fill="#2C3342"/>
<path d="M217.43 492.535C216.636 497.289 212.139 500.496 207.386 499.701C202.634 498.907 199.425 494.41 200.22 489.656C201.015 484.903 205.513 481.696 210.265 482.491C215.018 483.285 218.226 487.782 217.43 492.535Z" fill="#2C3342"/>
<path d="M26.2675 355.196C25.8836 355.196 25.5085 355.003 25.291 354.653C24.9564 354.114 25.1223 353.406 25.661 353.071C27.1557 352.145 28.2175 350.554 28.5001 348.818C28.8082 346.922 28.2274 344.755 26.8632 342.718C25.5749 340.792 23.7735 339.179 22.0316 337.618C21.5592 337.194 21.5194 336.468 21.9428 335.996C22.3649 335.525 23.0916 335.484 23.5644 335.907C25.412 337.564 27.323 339.275 28.7719 341.44C30.4608 343.964 31.1686 346.714 30.7662 349.188C30.3787 351.569 28.923 353.75 26.8722 355.024C26.6837 355.14 26.4738 355.196 26.2675 355.196Z" fill="#2C3342"/>
<path d="M49.9456 385.044C49.6069 385.044 49.2714 384.895 49.0443 384.607C48.6509 384.111 48.7353 383.389 49.2323 382.995L55.685 377.888C56.1825 377.495 56.9052 377.578 57.2981 378.077C57.692 378.573 57.6077 379.295 57.1106 379.689L50.6579 384.796C50.447 384.963 50.1954 385.044 49.9456 385.044Z" fill="#2C3342"/>
<path d="M53.4479 389.194C53.0801 389.194 52.718 389.017 52.4965 388.69C52.1403 388.164 52.2775 387.451 52.8024 387.094L58.9762 382.909C59.5001 382.554 60.2151 382.69 60.5703 383.215C60.9265 383.74 60.7893 384.455 60.2644 384.811L54.0907 388.996C53.8938 389.13 53.6695 389.194 53.4479 389.194Z" fill="#2C3342"/>
<path d="M74.6796 381.044L81.4411 385.861C85.9656 383.612 86.6213 377.589 86.7109 375.533L80.3731 372.65C75 374.722 74.6463 379.498 74.6796 381.044ZM81.3091 388.327C81.0736 388.327 80.8405 388.253 80.643 388.113L72.9008 382.597C72.6378 382.409 72.4656 382.12 72.4265 381.8C72.4162 381.715 71.4975 373.256 80.0493 370.324C80.3283 370.23 80.6304 370.246 80.8968 370.366L88.3473 373.754C88.7446 373.935 89.0042 374.325 89.0191 374.763C89.0329 375.187 89.2729 385.225 81.7351 388.244C81.5984 388.299 81.4526 388.327 81.3091 388.327Z" fill="#2C3342"/>
<path d="M125 399.562C124.828 399.562 124.652 399.523 124.487 399.439C123.92 399.156 123.691 398.467 123.975 397.9L127.204 391.457C127.488 390.891 128.177 390.661 128.745 390.946C129.312 391.23 129.542 391.92 129.257 392.487L126.028 398.928C125.827 399.33 125.422 399.562 125 399.562Z" fill="#2C3342"/>
<path d="M173.7 429.677C173.188 429.677 172.72 429.332 172.588 428.812C172.432 428.197 172.804 427.572 173.418 427.416L188.794 423.514C189.41 423.36 190.034 423.731 190.189 424.345C190.345 424.959 189.973 425.584 189.359 425.741L173.983 429.642C173.889 429.666 173.794 429.677 173.7 429.677Z" fill="#2C3342"/>
<path d="M257.983 479.348L344.711 472.043L355.508 553.667H250.945L257.983 479.348Z" fill="#5EC0DF"/>
<path d="M393.653 416.611C393.923 418.224 394.521 419.701 395.372 420.979C398.802 419.55 401.404 418.394 402.699 417.636C404.21 416.753 408.001 412.748 413.04 406.998C410.538 404.348 406.807 402.949 402.943 403.595C396.781 404.627 392.624 410.455 393.653 416.611Z" fill="#5EC0DF"/>
<path d="M279.247 458.126C279.083 458.126 278.915 458.097 278.752 458.038C278.008 457.763 277.627 456.94 277.901 456.194C278.631 454.208 295.923 407.426 307.311 398.584C318.236 390.101 349.261 390.546 353.415 390.645C361.535 385.899 397.609 365.163 404.677 366.957C407.651 367.708 410.364 369.95 411.934 372.954C413.531 376.009 413.735 379.487 412.507 382.749C409.968 389.501 368.922 413.781 360.719 418.579C360.035 418.979 359.155 418.749 358.756 418.065C358.355 417.38 358.585 416.502 359.27 416.101C377.921 405.189 408.138 386.212 409.821 381.738C411.021 378.551 410.249 375.926 409.391 374.284C408.211 372.027 406.136 370.286 403.976 369.741C399.31 368.579 371.157 383.583 354.513 393.33C354.278 393.467 354.036 393.544 353.742 393.526C353.404 393.519 319.728 392.577 309.071 400.852C298.327 409.196 280.771 456.708 280.594 457.187C280.382 457.765 279.832 458.126 279.247 458.126Z" fill="#2C3342"/>
<path d="M331.791 463.808C331.68 463.808 331.566 463.794 331.452 463.768C330.684 463.582 330.209 462.807 330.396 462.036C330.507 461.57 333.235 450.532 340.786 443.636C345.565 439.274 364.817 431.631 381.803 424.889C391.252 421.138 399.412 417.899 401.975 416.397C406.618 413.679 436.523 377.034 462.962 343.644C463.622 342.81 463.835 341.741 463.541 340.713C463.257 339.719 462.545 338.951 461.585 338.607C457.833 337.256 451.935 336.809 445.142 342.359C432.421 352.75 413.038 376.373 412.844 376.611C412.344 377.223 411.44 377.314 410.824 376.812C410.21 376.311 410.12 375.406 410.622 374.792C411.423 373.814 430.382 350.71 443.325 340.137C451.16 333.739 458.107 334.303 462.555 335.905C464.396 336.565 465.76 338.031 466.301 339.925C466.843 341.825 466.436 343.882 465.211 345.428C448.668 366.321 409.529 415.302 403.425 418.875C400.674 420.486 392.814 423.607 382.863 427.557C367.775 433.547 347.111 441.748 342.722 445.755C335.831 452.049 333.212 462.603 333.185 462.71C333.027 463.366 332.439 463.808 331.791 463.808Z" fill="#2C3342"/>
<path d="M404.327 369.784C403.858 369.784 403.4 369.556 403.125 369.134C402.692 368.471 402.878 367.581 403.542 367.147L413.317 360.763C416.823 357.474 443.75 332.434 451.713 331.102C458.839 329.906 462.482 334.275 463.414 336.75C463.693 337.49 463.319 338.318 462.576 338.599C461.838 338.877 461.013 338.504 460.731 337.769C460.642 337.548 458.691 332.85 452.186 333.932C446.106 334.95 423.418 355.219 415.189 362.941C415.128 362.999 415.063 363.052 414.992 363.098L405.111 369.551C404.869 369.71 404.597 369.784 404.327 369.784Z" fill="#2C3342"/>
<path d="M269.274 479.832C269.182 479.832 269.088 479.823 268.993 479.806C268.216 479.651 267.711 478.896 267.864 478.118L272.279 455.81C272.424 455.082 273.103 454.585 273.842 454.662L339.548 461.768C340.188 461.836 340.704 462.323 340.809 462.959L342.342 472.124C342.473 472.907 341.945 473.647 341.163 473.777C340.392 473.907 339.641 473.381 339.512 472.598L338.158 464.505L274.841 457.659L270.682 478.676C270.545 479.359 269.945 479.832 269.274 479.832Z" fill="#2C3342"/>
<path d="M371.716 394.01C372.336 397.718 375.845 400.222 379.554 399.602C383.263 398.981 385.766 395.472 385.146 391.764C384.525 388.055 381.017 385.551 377.307 386.172C373.599 386.793 371.096 390.302 371.716 394.01Z" fill="#5EC0DF"/>
<path d="M261.449 508.09C260.931 508.09 260.46 507.736 260.334 507.209C260.186 506.592 260.566 505.972 261.182 505.824L339.672 486.981C340.287 486.837 340.909 487.213 341.057 487.829C341.205 488.446 340.825 489.066 340.207 489.214L261.719 508.057C261.629 508.079 261.538 508.09 261.449 508.09Z" fill="#2C3342"/>
<path d="M264.937 492.535C265.732 497.289 270.23 500.496 274.982 499.701C279.735 498.907 282.944 494.41 282.148 489.656C281.353 484.903 276.856 481.696 272.103 482.491C267.351 483.285 264.143 487.782 264.937 492.535Z" fill="#2C3342"/>
<path d="M456.1 355.196C455.895 355.196 455.685 355.14 455.496 355.024C453.445 353.75 451.988 351.569 451.601 349.186C451.199 346.714 451.908 343.964 453.597 341.44C455.045 339.275 456.956 337.564 458.805 335.907C459.274 335.485 460 335.523 460.426 335.996C460.849 336.468 460.81 337.194 460.337 337.618C458.595 339.179 456.793 340.792 455.505 342.718C454.141 344.755 453.559 346.922 453.869 348.817C454.15 350.554 455.212 352.145 456.708 353.071C457.245 353.406 457.412 354.114 457.078 354.653C456.859 355.003 456.485 355.196 456.1 355.196Z" fill="#2C3342"/>
<path d="M432.421 385.044C432.172 385.044 431.922 384.963 431.71 384.796L425.258 379.689C424.76 379.295 424.677 378.573 425.071 378.076C425.464 377.578 426.188 377.493 426.684 377.888L433.134 382.995C433.633 383.389 433.716 384.111 433.323 384.607C433.096 384.895 432.761 385.044 432.421 385.044Z" fill="#2C3342"/>
<path d="M428.92 389.194C428.699 389.194 428.475 389.13 428.277 388.996L422.104 384.811C421.579 384.455 421.442 383.74 421.797 383.215C422.154 382.69 422.869 382.554 423.393 382.909L429.567 387.094C430.091 387.451 430.228 388.164 429.873 388.69C429.65 389.017 429.289 389.194 428.92 389.194Z" fill="#2C3342"/>
<path d="M395.658 375.533C395.748 377.589 396.401 383.612 400.928 385.861L407.688 381.044C407.721 379.498 407.37 374.722 401.995 372.65L395.658 375.533ZM401.06 388.327C400.915 388.327 400.77 388.299 400.633 388.244C393.094 385.225 393.335 375.187 393.35 374.761C393.364 374.325 393.624 373.935 394.022 373.754L401.471 370.366C401.738 370.246 402.042 370.23 402.318 370.324C410.871 373.256 409.952 381.715 409.941 381.8C409.902 382.12 409.73 382.409 409.467 382.597L401.726 388.113C401.528 388.253 401.295 388.327 401.06 388.327Z" fill="#2C3342"/>
<path d="M357.367 399.562C356.947 399.562 356.541 399.33 356.34 398.928L353.112 392.487C352.827 391.92 353.056 391.23 353.623 390.946C354.19 390.663 354.881 390.891 355.164 391.457L358.392 397.9C358.676 398.467 358.447 399.156 357.881 399.439C357.716 399.523 357.54 399.562 357.367 399.562Z" fill="#2C3342"/>
<path d="M308.668 429.677C308.574 429.677 308.48 429.666 308.384 429.642L293.01 425.741C292.396 425.584 292.023 424.959 292.179 424.345C292.335 423.728 292.96 423.36 293.575 423.514L308.949 427.416C309.564 427.572 309.936 428.197 309.78 428.812C309.648 429.332 309.18 429.677 308.668 429.677Z" fill="#2C3342"/>
<path d="M296.557 69.1205C296.448 69.1205 296.337 69.1044 296.228 69.0711C294.417 68.5291 292.569 68.0055 290.735 67.5163C290.122 67.3521 289.759 66.7216 289.922 66.1095C290.086 65.4963 290.725 65.1369 291.328 65.2965C293.185 65.7926 295.054 66.322 296.887 66.8709C297.494 67.0535 297.839 67.6931 297.658 68.3006C297.508 68.799 297.051 69.1205 296.557 69.1205Z" fill="#2C3342"/>
<path d="M317.427 76.7236C317.275 76.7236 317.12 76.6926 316.972 76.6283C313.608 75.1768 310.155 73.8033 306.71 72.5482C306.113 72.3311 305.805 71.672 306.023 71.076C306.239 70.4811 306.901 70.1722 307.494 70.3904C310.983 71.6605 314.478 73.05 317.882 74.521C318.465 74.7714 318.732 75.4478 318.482 76.03C318.294 76.4641 317.871 76.7236 317.427 76.7236ZM337.277 86.6913C337.082 86.6913 336.885 86.6419 336.704 86.5374C333.522 84.7023 330.251 82.9396 326.981 81.2975C326.415 81.0127 326.186 80.3225 326.471 79.7552C326.756 79.1903 327.443 78.9606 328.012 79.2454C331.32 80.9059 334.631 82.6904 337.852 84.5485C338.4 84.8643 338.59 85.5671 338.273 86.116C338.06 86.4857 337.673 86.6913 337.277 86.6913ZM355.842 98.8799C355.605 98.8799 355.365 98.8064 355.159 98.6537C352.216 96.4684 349.169 94.3405 346.106 92.3297C345.575 91.9818 345.428 91.2698 345.776 90.7392C346.125 90.2098 346.838 90.0628 347.366 90.4096C350.466 92.4445 353.549 94.5977 356.527 96.8094C357.037 97.1872 357.143 97.9073 356.765 98.416C356.539 98.7191 356.193 98.8799 355.842 98.8799ZM372.887 113.118C372.606 113.118 372.324 113.016 372.103 112.808C369.429 110.3 366.646 107.837 363.834 105.488C363.347 105.081 363.283 104.356 363.689 103.871C364.096 103.384 364.819 103.317 365.307 103.725C368.152 106.103 370.967 108.595 373.673 111.133C374.136 111.567 374.16 112.294 373.726 112.755C373.499 112.997 373.194 113.118 372.887 113.118ZM388.191 129.211C387.864 129.211 387.54 129.074 387.313 128.805C384.952 126.017 382.47 123.251 379.938 120.588C379.501 120.129 379.52 119.402 379.978 118.965C380.44 118.528 381.166 118.545 381.602 119.006C384.165 121.701 386.677 124.499 389.067 127.321C389.477 127.805 389.416 128.529 388.932 128.939C388.716 129.122 388.452 129.211 388.191 129.211ZM401.547 146.95C401.176 146.95 400.812 146.771 400.59 146.439C398.554 143.384 396.406 140.354 394.205 137.431C393.824 136.925 393.925 136.205 394.432 135.824C394.943 135.441 395.66 135.546 396.04 136.05C398.267 139.008 400.441 142.074 402.502 145.165C402.854 145.693 402.711 146.406 402.183 146.757C401.988 146.888 401.766 146.95 401.547 146.95Z" fill="#2C3342"/>
<path d="M410.273 161.373C409.866 161.373 409.473 161.158 409.264 160.776C408.371 159.141 407.425 157.469 406.451 155.808C406.132 155.261 406.315 154.558 406.861 154.238C407.41 153.915 408.112 154.1 408.434 154.648C409.417 156.328 410.375 158.019 411.28 159.675C411.584 160.232 411.379 160.929 410.823 161.233C410.647 161.329 410.459 161.373 410.273 161.373Z" fill="#2C3342"/>
<path d="M79.9047 148.338C79.69 148.338 79.4718 148.279 79.2777 148.151C78.746 147.804 78.5979 147.092 78.9447 146.562C79.9954 144.955 81.0829 143.345 82.1784 141.776C82.5413 141.255 83.2567 141.128 83.777 141.491C84.2972 141.854 84.4246 142.569 84.0617 143.089C82.98 144.641 81.9051 146.231 80.867 147.819C80.6465 148.156 80.2791 148.338 79.9047 148.338Z" fill="#2C3342"/>
<path d="M162.005 78.0191C161.567 78.0191 161.151 77.7676 160.959 77.3427C160.697 76.7651 160.954 76.0841 161.532 75.8234C165.042 74.2376 168.646 72.7401 172.243 71.3702C172.833 71.1462 173.499 71.4413 173.725 72.0339C173.95 72.6276 173.653 73.2902 173.06 73.5164C169.506 74.8703 165.945 76.3505 162.477 77.9169C162.324 77.9858 162.163 78.0191 162.005 78.0191ZM141.603 88.7516C141.215 88.7516 140.836 88.5552 140.62 88.1981C140.292 87.6561 140.465 86.9498 141.009 86.6214C144.304 84.6267 147.702 82.7067 151.108 80.9141C151.672 80.6213 152.365 80.836 152.659 81.3953C152.954 81.9568 152.739 82.6516 152.177 82.9467C148.813 84.7175 145.454 86.6145 142.197 88.5863C142.011 88.6988 141.805 88.7516 141.603 88.7516ZM122.628 101.849C122.287 101.849 121.949 101.698 121.723 101.409C121.333 100.909 121.42 100.187 121.921 99.7965C124.957 97.4205 128.101 95.1089 131.267 92.9236C131.788 92.563 132.504 92.6951 132.864 93.2164C133.225 93.7389 133.094 94.4532 132.572 94.8138C129.443 96.9727 126.336 99.2579 123.335 101.605C123.125 101.769 122.876 101.849 122.628 101.849ZM105.345 117.111C105.051 117.111 104.756 116.999 104.531 116.774C104.084 116.324 104.087 115.597 104.536 115.149C107.266 112.431 110.114 109.762 113 107.214C113.476 106.795 114.2 106.839 114.621 107.315C115.041 107.79 114.995 108.516 114.519 108.935C111.669 111.452 108.855 114.091 106.156 116.777C105.932 117 105.638 117.111 105.345 117.111ZM89.9975 134.321C89.7483 134.321 89.4969 134.24 89.2867 134.074C88.7883 133.681 88.7045 132.959 89.0972 132.46C91.4812 129.442 93.9915 126.453 96.5581 123.575C96.9795 123.101 97.7064 123.06 98.1796 123.482C98.6527 123.904 98.694 124.631 98.2726 125.104C95.7359 127.948 93.2554 130.902 90.899 133.884C90.6728 134.171 90.3375 134.321 89.9975 134.321Z" fill="#2C3342"/>
<path d="M183.57 69.8071C183.082 69.8071 182.628 69.4925 182.474 69.001C182.285 68.3958 182.623 67.7516 183.228 67.5632C185.067 66.9868 186.93 66.4332 188.765 65.9188C189.375 65.7454 190.01 66.1048 190.181 66.7146C190.352 67.3255 189.996 67.9594 189.385 68.1305C187.572 68.6392 185.731 69.1847 183.913 69.7543C183.8 69.7899 183.684 69.8071 183.57 69.8071Z" fill="#2C3342"/>
<path d="M410.272 31.9368C409.48 31.9368 408.836 31.2948 408.836 30.5013V16.0746C408.836 15.2822 409.48 14.6391 410.272 14.6391C411.065 14.6391 411.707 15.2822 411.707 16.0746V30.5013C411.707 31.2948 411.065 31.9368 410.272 31.9368Z" fill="#2C3342"/>
<path d="M417.486 24.724H403.059C402.266 24.724 401.624 24.0809 401.624 23.2886C401.624 22.495 402.266 21.8531 403.059 21.8531H417.486C418.279 21.8531 418.921 22.495 418.921 23.2886C418.921 24.0809 418.279 24.724 417.486 24.724Z" fill="#2C3342"/>
<path d="M389.207 507.356C388.414 507.356 387.771 506.713 387.771 505.921V491.494C387.771 490.7 388.414 490.058 389.207 490.058C390 490.058 390.642 490.7 390.642 491.494V505.921C390.642 506.713 390 507.356 389.207 507.356Z" fill="#2C3342"/>
<path d="M396.422 500.143H381.994C381.201 500.143 380.558 499.5 380.558 498.708C380.558 497.914 381.201 497.272 381.994 497.272H396.422C397.214 497.272 397.857 497.914 397.857 498.708C397.857 499.5 397.214 500.143 396.422 500.143Z" fill="#2C3342"/>
<path d="M387.226 459.304C384.687 459.304 384.009 461.431 384.009 462.687C384.009 463.94 384.687 466.064 387.226 466.064C389.765 466.064 390.442 463.937 390.442 462.682C390.442 461.428 389.765 459.304 387.226 459.304ZM387.226 468.934C383.229 468.934 381.138 465.791 381.138 462.687C381.138 459.58 383.229 456.433 387.226 456.433C391.221 456.433 393.313 459.578 393.313 462.682C393.313 465.789 391.221 468.934 387.226 468.934Z" fill="#2C3342"/>
<path d="M413.105 473.941C408.765 473.941 406.789 477.36 406.789 480.537C406.789 483.815 408.741 487.122 413.105 487.122C415.067 487.122 416.701 486.426 417.829 485.112C418.841 483.934 419.422 482.261 419.422 480.527C419.422 477.248 417.469 473.941 413.105 473.941ZM413.105 489.993C407.074 489.993 403.918 485.235 403.918 480.537C403.918 478.091 404.729 475.798 406.202 474.08C407.892 472.112 410.279 471.07 413.105 471.07C419.137 471.07 422.293 475.828 422.293 480.527C422.293 482.973 421.481 485.266 420.008 486.983C418.317 488.953 415.931 489.993 413.105 489.993Z" fill="#2C3342"/>
<path d="M39.9351 135.115C38.894 135.115 37.9725 135.7 37.4433 136.234C36.5599 137.125 35.5476 139.109 37.3508 140.896C39.1541 142.683 41.131 141.648 42.0165 140.757C42.8993 139.866 43.9122 137.882 42.1089 136.095C41.3853 135.378 40.633 135.115 39.9351 135.115ZM39.5157 144.754C38.0914 144.754 36.6215 144.215 35.3299 142.935C32.4914 140.123 33.219 136.419 35.404 134.214C37.5913 132.005 41.2912 131.244 44.1297 134.055C46.9683 136.869 46.2407 140.572 44.0557 142.778C42.8629 143.98 41.222 144.754 39.5157 144.754Z" fill="#2C3342"/>
<path d="M45.5799 94.6391C44.9986 94.6391 44.4639 94.7298 44.0009 94.8561C41.5585 95.5222 39.4847 97.6133 38.8418 100.059C38.4498 101.549 38.4368 103.775 40.6012 105.92C43.6847 108.974 47.494 107.937 49.7302 105.682C52.0377 103.354 52.9778 99.6298 49.8782 96.558C48.3889 95.0823 46.8682 94.6391 45.5799 94.6391ZM44.8918 110.7C42.7418 110.701 40.5267 109.888 38.5804 107.959C36.1325 105.533 35.2389 102.469 36.0652 99.329C36.9611 95.9241 39.8466 93.013 43.2451 92.0863C46.3793 91.2308 49.4534 92.0955 51.8991 94.5196C56.1833 98.764 55.0771 104.364 51.7699 107.703C49.9625 109.526 47.4752 110.7 44.8918 110.7Z" fill="#2C3342"/>
<path d="M77.7768 97.6477C77.1945 97.6477 76.6606 97.7384 76.1978 97.8647C73.7552 98.5308 71.6813 100.622 71.0382 103.068C70.6466 104.557 70.6329 106.784 72.7975 108.929C75.8808 111.984 79.6899 110.946 81.9269 108.69C84.2339 106.363 85.1744 102.638 82.075 99.5666C80.5856 98.091 79.0652 97.6477 77.7768 97.6477ZM77.0889 113.71C74.938 113.71 72.7228 112.897 70.7764 110.967C68.329 108.542 67.4355 105.477 68.2617 102.338C69.1572 98.9327 72.043 96.0228 75.441 95.0949C78.5771 94.2394 81.6501 95.1041 84.0961 97.5283C88.3806 101.774 87.2736 107.374 83.9664 110.711C82.1589 112.535 79.6715 113.71 77.0889 113.71Z" fill="#2C3342"/>
<path d="M426.14 121.677C425.346 121.677 424.704 121.034 424.704 120.242V105.814C424.704 105.021 425.346 104.378 426.14 104.378C426.932 104.378 427.575 105.021 427.575 105.814V120.242C427.575 121.034 426.932 121.677 426.14 121.677Z" fill="#2C3342"/>
<path d="M433.354 114.463H418.926C418.134 114.463 417.491 113.82 417.491 113.028C417.491 112.234 418.134 111.592 418.926 111.592H433.354C434.146 111.592 434.789 112.234 434.789 113.028C434.789 113.82 434.146 114.463 433.354 114.463Z" fill="#2C3342"/>
<path d="M424.158 73.6243C421.619 73.6243 420.942 75.7511 420.942 77.0074C420.942 78.2614 421.619 80.3835 424.158 80.3835C426.697 80.3835 427.374 78.2579 427.374 77.0016C427.374 75.7465 426.697 73.6243 424.158 73.6243ZM424.158 83.2544C420.162 83.2544 418.072 80.1125 418.072 77.0074C418.072 73.8999 420.162 70.7534 424.158 70.7534C428.153 70.7534 430.245 73.8965 430.245 77.0016C430.245 80.1091 428.153 83.2544 424.158 83.2544Z" fill="#2C3342"/>
<path d="M450.038 88.2625C448.076 88.2625 446.441 88.9572 445.314 90.2721C444.302 91.4514 443.721 93.1223 443.721 94.8574C443.721 98.136 445.674 101.442 450.038 101.442C452.001 101.442 453.635 100.747 454.761 99.4336C455.774 98.2543 456.355 96.5823 456.355 94.8471C456.355 91.5697 454.402 88.2625 450.038 88.2625ZM450.038 104.313C444.006 104.313 440.85 99.5565 440.85 94.8574C440.85 92.4115 441.662 90.1193 443.135 88.4026C444.826 86.4331 447.212 85.3916 450.038 85.3916C452.865 85.3916 455.253 86.432 456.942 88.398C458.414 90.1124 459.226 92.4023 459.226 94.8471C459.226 99.5508 456.07 104.313 450.038 104.313Z" fill="#2C3342"/>
</svg>
