<?xml version="1.0" encoding="UTF-8" standalone="no"?>
<!-- Created with Inkscape (http://www.inkscape.org/) -->

<svg
   width="1077.8119mm"
   height="275.79059mm"
   viewBox="0 0 1077.8119 275.79059"
   version="1.1"
   id="svg5"
   xml:space="preserve"
   xmlns:inkscape="http://www.inkscape.org/namespaces/inkscape"
   xmlns:sodipodi="http://sodipodi.sourceforge.net/DTD/sodipodi-0.dtd"
   xmlns="http://www.w3.org/2000/svg"
   xmlns:svg="http://www.w3.org/2000/svg"><sodipodi:namedview
     id="namedview7"
     pagecolor="#ffffff"
     bordercolor="#000000"
     borderopacity="0.25"
     inkscape:showpageshadow="2"
     inkscape:pageopacity="0.0"
     inkscape:pagecheckerboard="0"
     inkscape:deskcolor="#d1d1d1"
     inkscape:document-units="mm"
     showgrid="false" /><defs
     id="defs2" /><g
     inkscape:label="Layer 1"
     inkscape:groupmode="layer"
     id="layer1"
     transform="translate(-226.06873,-8.8229444)"><g
       id="g509"
       transform="translate(232.69585,70.088197)"><g
         id="g362"
         transform="matrix(3.1635685,0,0,3.1635685,-22.909874,-98.34845)"
         inkscape:export-filename="eidcare full white bg.png"
         inkscape:export-xdpi="96"
         inkscape:export-ydpi="96"><path
           d="m 33.127128,25.610202 v 7.31e-4 c -7.106516,0.108166 -13.916962,2.911791 -19.258105,8.08732 -4.2611295,4.128991 -6.9893942,9.033741 -8.2864807,14.895467 -0.3815583,1.72448 -0.4369828,2.483623 -0.4355574,5.971982 0.00142,3.719843 0.038266,4.154699 0.5349639,6.28007 1.7721373,7.583175 5.9545312,13.622773 12.4111352,17.923365 3.071583,2.045736 6.426172,3.393675 10.424841,4.188246 2.351421,0.467463 7.776724,0.46694 10.273514,-0.0065 3.664664,-0.690482 8.036007,-2.536504 11.268322,-4.758335 l 1.503551,-1.033685 7.416486,7.496225 c 4.079035,4.12272 7.457557,7.495911 7.507825,7.495911 0.05027,0 1.374484,1.290983 2.943247,2.868316 1.568555,1.577542 3.099695,3.037931 3.401931,3.245274 0.433916,0.297847 0.782553,0.361805 1.658954,0.305162 1.037969,-0.06709 1.162751,-0.128335 1.932136,-0.950392 0.788196,-0.842331 0.822475,-0.927714 0.822475,-2.053992 V 94.390096 L 75.87972,92.854252 c -0.751619,-0.84463 -1.726256,-1.872044 -2.165606,-2.283282 -0.439246,-0.411237 -0.74399,-0.836479 -0.677418,-0.945271 0.06657,-0.108688 0.03877,-0.146415 -0.06145,-0.08392 -0.150595,0.09385 -10.870461,-10.6256 -15.601729,-15.600997 -1.280845,-1.346998 -1.295999,-1.374902 -0.981953,-1.807981 4.086455,-5.634841 5.785331,-10.844439 5.821909,-17.852718 0.01348,-2.570574 -0.05967,-3.502363 -0.404236,-5.138221 -0.574896,-2.729424 -1.432067,-5.235412 -2.601089,-7.604076 -0.204522,-0.414059 -0.356685,-0.737719 -0.472061,-1.000556 -0.01003,-0.01495 -0.01933,-0.03041 -0.02832,-0.04619 -0.02654,-0.04065 -0.05142,-0.08225 -0.07545,-0.124469 -0.0022,-0.0036 -0.0036,-0.0065 -0.0057,-0.01076 -0.0208,-0.0029 -0.04389,-0.0186 -0.0626,-0.051 -0.0036,-0.0057 -0.0064,-0.01202 -0.01003,-0.01777 -0.01682,-0.03303 -0.03177,-0.06741 -0.04118,-0.103358 -0.0083,-0.03062 -0.01766,-0.06051 -0.02623,-0.09103 -0.01045,-0.02874 -0.02592,-0.0557 -0.03752,-0.08402 -0.01139,-0.02498 -0.02686,-0.04745 -0.04086,-0.07096 -0.02404,-0.02926 -0.04786,-0.05863 -0.06594,-0.09218 -0.02184,-0.03888 -0.03846,-0.08047 -0.05664,-0.121229 -0.01672,-0.03731 -0.03553,-0.07347 -0.05372,-0.109942 -0.01588,-0.02916 -0.03647,-0.05518 -0.05748,-0.08068 -0.01902,-0.02257 -0.03585,-0.0464 -0.05738,-0.06657 -0.01986,-0.02372 -0.03668,-0.04943 -0.05267,-0.07577 -0.01557,-0.02404 -0.0301,-0.04891 -0.04316,-0.07441 -0.01181,-0.02456 -0.02686,-0.04776 -0.03867,-0.07242 -0.01191,-0.02289 -0.02613,-0.04379 -0.04159,-0.06438 -0.01463,-0.02059 -0.02853,-0.04097 -0.04483,-0.0602 -0.02414,-0.02414 -0.04787,-0.04849 -0.07075,-0.07389 -0.02268,-0.02738 -0.04536,-0.05508 -0.06291,-0.08622 -0.01986,-0.03344 -0.03877,-0.06741 -0.05194,-0.104089 -0.0015,-0.0051 -0.0029,-0.0093 -0.0043,-0.0138 -0.09845,-0.131471 -0.20379,-0.27705 -0.349369,-0.499964 C 53.561915,32.534248 47.169813,28.066966 40.287884,26.412611 37.897691,25.838028 35.494748,25.574565 33.127128,25.610202 Z m 32.791347,5.842601 c 3.13e-4,0.0015 6.27e-4,0.0029 0.0014,0.0044 0.0087,0.0043 0.01745,0.0084 0.02623,0.01264 -0.0088,-0.0057 -0.01954,-0.01191 -0.02759,-0.01703 z m -0.441858,0.506967 c -0.02268,0.0083 -0.04452,0.0163 -0.06187,0.0208 3.14e-4,0.0065 -0.02216,0.03459 -0.01578,0.03459 0.01024,0 0.05403,-0.03992 0.07765,-0.05539 z m -32.719968,0.09562 c 0.596634,-0.01787 1.195985,-0.0094 1.795963,0.02675 4.74757,0.285515 8.648943,1.676093 12.149007,4.329436 4.528314,3.433074 7.172669,7.455571 8.618218,13.111 0.431199,1.686752 0.456908,2.0565 0.384693,5.518941 -0.07002,3.360964 -0.125723,3.872424 -0.589737,5.42363 -1.915833,6.404434 -6.158214,11.499075 -11.914492,14.30688 -1.152092,0.561938 -2.933423,1.245835 -3.958643,1.51975 -1.595935,0.4266 -2.338253,0.507489 -5.162884,0.563505 -4.6161,0.09155 -6.873882,-0.417717 -10.744739,-2.423009 -2.340134,-1.212392 -3.902836,-2.420918 -5.957037,-4.607531 -2.730219,-2.906147 -4.375273,-5.954737 -5.488749,-10.172037 -0.430906,-1.631781 -0.489816,-2.224757 -0.494091,-4.991805 -0.005,-3.338599 0.180725,-4.578059 1.102315,-7.349496 2.915887,-8.769023 11.311922,-14.988688 20.260176,-15.256018 z m 34.049827,4.866082 c -0.0091,0.0093 -0.01777,0.01902 -0.02654,0.02864 l 0.0065,0.0065 c 0.0099,-0.0099 0.01871,-0.01797 0.02801,-0.02707 -0.0028,-0.0029 -0.0043,-0.005 -0.0071,-0.0078 z m -8.222762,2.134254 c -3.14e-4,-1.04e-4 -0.0036,0.0029 -0.005,0.0037 3.13e-4,7.32e-4 7.31e-4,0.0015 7.31e-4,0.0028 7.32e-4,-0.0014 0.0043,-0.0057 0.0043,-0.0057 z m -24.787633,0.767609 c -1.874448,-0.0029 -3.02863,0.487214 -4.211238,1.787497 -1.188669,1.306972 -1.587888,2.34745 -1.587888,4.137247 0,1.210407 0.09019,1.665851 0.49338,2.497731 0.628195,1.296417 1.65655,2.347554 2.855148,2.918166 1.337906,0.637392 3.567471,0.634779 4.901092,-0.0025 1.102973,-0.527973 2.145436,-1.576915 2.76433,-2.780634 0.370898,-0.72152 0.440291,-1.141118 0.440291,-2.664316 0,-2.138226 -0.402354,-3.152367 -1.747367,-4.404159 -1.22786,-1.142582 -2.130387,-1.486203 -3.907748,-1.489024 z m 293.768749,6.298254 c -0.0648,-0.0028 -0.14004,0.0094 -0.20797,0.03689 -0.15049,0.06072 -0.10556,0.106075 0.11391,0.115168 0.19856,0.0083 0.31039,-0.03668 0.24768,-0.09991 -0.0314,-0.03166 -0.0878,-0.04933 -0.15362,-0.05215 z m 3.40903,7.32e-4 c -0.0857,0 -0.17034,0.01338 -0.23514,0.03982 -0.12959,0.05278 -0.024,0.09594 0.23514,0.09594 0.25918,0 0.36578,-0.04316 0.23619,-0.09594 -0.0658,-0.02644 -0.15049,-0.03982 -0.23619,-0.03982 z m -27.32978,0.0057 c -0.0178,0.0464 -0.0355,0.0927 -0.0522,0.1391 0.1484,-0.0051 0.24037,-0.03919 0.18602,-0.09374 -0.0272,-0.02759 -0.0784,-0.03961 -0.13377,-0.04536 z m 7.14832,3.966377 c -0.0512,0 -0.64063,0.556607 -1.30843,1.236952 -0.66781,0.680344 -1.17153,1.237056 -1.11928,1.237056 0.0512,0 0.64063,-0.556712 1.30844,-1.237056 0.6678,-0.680345 1.17153,-1.236952 1.11927,-1.236952 z m 6.78359,0.190308 c -0.0523,0 -0.51209,0.428168 -1.02313,0.951542 -0.51,0.523269 -0.88622,0.951542 -0.83397,0.951542 0.0523,0 0.51209,-0.428273 1.02313,-0.951542 0.51,-0.523374 0.88518,-0.951542 0.83397,-0.951542 z M 37.186203,54.882151 c -0.936493,-0.0162 -2.129342,-0.0071 -3.699046,0.009 l -5.534722,0.05539 -1.089805,0.515536 c -2.379638,1.125756 -4.222525,3.601854 -4.647139,6.244015 -0.413641,2.574649 -0.140041,3.986651 0.910888,4.70002 l 0.640213,0.434543 10.01026,-4.18e-4 c 9.578956,-6.27e-4 10.035655,-0.01641 10.610446,-0.370166 0.934403,-0.57521 1.039433,-0.943286 0.970144,-3.403917 -0.05748,-2.040093 -0.111823,-2.325189 -0.67376,-3.522951 -0.770326,-1.642336 -1.314079,-2.299376 -2.73256,-3.304007 -1.452865,-1.028773 -1.955651,-1.308226 -4.764919,-1.357031 z m 308.586977,7.167026 c -0.0324,-0.03376 -0.0564,0.08455 -0.0596,0.320002 -0.003,0.313941 0.0355,0.465581 0.0867,0.336723 0.0523,-0.128857 0.0554,-0.385737 0.007,-0.570924 -0.0115,-0.0463 -0.023,-0.07462 -0.0345,-0.0858 z m -0.008,2.025357 c -0.0334,-0.01286 -0.0575,0.09656 -0.0575,0.29283 0,0.261687 0.0428,0.368703 0.0951,0.237859 0.0522,-0.130739 0.0522,-0.344875 0,-0.475718 -0.0136,-0.03261 -0.0261,-0.05058 -0.0376,-0.05497 z m -16.11089,10.971938 c -0.15362,0 -0.30725,0.01108 -0.42325,0.03376 -0.2341,0.04546 -0.0428,0.08256 0.42325,0.08256 0.46715,0 0.65736,-0.0371 0.4243,-0.08256 -0.116,-0.02268 -0.26963,-0.03376 -0.4243,-0.03376 z m 13.55255,1.880719 c -0.0523,0 -0.3825,0.299728 -0.73365,0.666131 -0.35219,0.366299 -0.59778,0.666027 -0.54553,0.666027 0.0523,0 0.3825,-0.299728 0.73365,-0.666027 0.35219,-0.366403 0.59778,-0.666131 0.54553,-0.666131 z m -11.49375,5.542351 c -0.0658,-0.0029 -0.14108,0.0093 -0.20901,0.03679 -0.15049,0.06072 -0.10556,0.105761 0.11496,0.114853 0.19856,0.0083 0.30934,-0.03679 0.24663,-0.100013 -0.0314,-0.03156 -0.0878,-0.04901 -0.15258,-0.05163 z m -4.13223,0.0014 c -0.0846,0 -0.17034,0.01306 -0.23514,0.0395 -0.12959,0.05278 -0.024,0.09625 0.23514,0.09625 0.25918,0 0.36578,-0.04348 0.23619,-0.09625 -0.0648,-0.02644 -0.15049,-0.0395 -0.23619,-0.0395 z M 40.627429,83.832425 c -0.01223,0.03553 -0.01965,0.0743 -0.02237,0.117467 0.0043,-0.0115 0.0084,-0.0116 0.01286,-0.02895 0.0064,-0.02435 0.005,-0.06061 0.0095,-0.08852 z"
           fill="#5dbfdd"
           id="path182"
           style="stroke-width:1.04508" /><path
           d="M 43.678989,98.293403 C 42.635117,98.187889 40.454568,97.051364 38.693406,95.269197 36.35996,92.907639 35.334433,89.640435 35.329208,85.346845 l -0.0021,-2.065819 0.261758,-0.01656 c 0.496013,-0.03138 2.386811,-0.150758 3.258023,-0.349451 0.881313,-0.200997 3.475685,-0.90567 3.647005,-0.96147 0.04929,-0.01605 -0.282049,1.128265 -0.268463,2.357588 0.06605,5.960486 2.854848,7.939615 5.441564,8.369107 3.351349,0.478541 8.014616,-0.499158 9.410138,-0.792179 l 7.480407,-2.046341 2.527225,2.7479 c 0.441067,0.479581 1.047913,1.141451 1.047913,1.214711 0,0.239427 -7.483594,3.089796 -10.907995,3.941428 -5.323158,1.607262 -10.583748,1.280297 -13.545694,0.547644 z m 29.691315,-8.082366 -2.542997,-2.501836 6.083282,-3.04712 c 3.096822,-1.5512 5.81182,-3.137242 9.71396,-6.012225 3.045701,-2.243983 4.548323,-3.124133 7.109909,-5.432183 1.65007,-1.48662 3.460469,-0.70872 3.862509,-0.661691 0.773565,0.0904 1.244116,2.332997 0.465526,3.23239 -1.670867,1.929941 -6.933666,5.652171 -11.097562,8.268101 -3.94004,2.475366 -12.65799,6.802484 -12.683563,6.813686 -0.124349,0.05447 -0.196031,0.07088 -0.196031,0.07088 -0.240573,-0.233301 -0.483846,-0.454456 -0.715033,-0.729998 z M 141.5016,82.338803 c -3.95874,-0.565282 -7.14518,-2.100603 -9.95748,-4.797003 -3.44771,-3.306516 -5.21911,-7.262546 -5.48665,-12.251216 -0.33024,-6.171173 2.23228,-11.952533 6.90691,-15.584067 4.8272,-3.750046 11.8637,-4.740255 17.35035,-2.441715 2.09433,0.87755 3.4268,1.783004 5.10833,3.471533 2.35665,2.367097 3.85946,5.164869 4.62864,8.616232 0.33547,1.505223 0.40863,5.991734 0.11705,7.189914 l -0.16199,0.666026 -12.96416,0.04891 -12.96417,0.04891 0.11914,0.426913 c 0.2968,1.068486 1.49132,3.232629 2.26154,4.097638 0.46611,0.52327 1.2635,1.220962 1.77245,1.550266 4.07998,2.642997 10.74443,1.985435 14.1984,-1.400715 l 0.6584,-0.64523 2.51968,2.549253 2.51968,2.549358 -0.93744,0.970876 c -3.00877,3.115162 -7.23715,4.863574 -12.15423,5.025038 -1.29589,0.04254 -2.8865,0.0014 -3.53445,-0.09092 z m 11.07467,-21.974184 c 0,-0.545007 -0.81725,-2.496895 -1.45683,-3.477386 -1.01895,-1.562911 -2.60329,-2.662958 -4.61401,-3.203366 -1.19662,-0.32157 -3.89396,-0.35334 -5.27659,-0.06218 -3.18748,0.671043 -5.69357,2.971987 -6.85465,6.294074 l -0.25396,0.727164 h 9.22802 c 7.97184,0 9.22802,-0.03783 9.22802,-0.278304 z m 69.23837,21.975124 c -1.88741,-0.269734 -3.42053,-0.752559 -5.42917,-1.710057 -4.78227,-2.279833 -8.07739,-6.304525 -9.46421,-11.562197 -0.42848,-1.622167 -0.49014,-2.234686 -0.49014,-4.808708 0,-2.558764 0.0637,-3.190826 0.47969,-4.768891 1.79126,-6.780661 6.98529,-11.657508 13.9988,-13.145069 1.72646,-0.365985 5.7406,-0.313 7.54022,0.09949 3.19375,0.731867 6.06771,2.229774 8.22579,4.286797 l 1.38786,1.323484 -2.57611,2.611854 -2.57507,2.611958 -0.86428,-0.76813 c -1.14749,-1.019577 -3.16658,-2.071654 -4.65476,-2.425726 -1.52268,-0.362537 -4.29213,-0.370584 -5.61102,-0.0162 -3.36932,0.905558 -5.90258,3.413741 -6.9278,6.860087 -0.46924,1.577751 -0.46924,5.082936 0,6.660687 0.94161,3.167312 3.09342,5.569419 5.92976,6.620869 1.50073,0.556399 5.1031,0.678986 6.81703,0.232007 1.57179,-0.409669 3.18957,-1.280531 4.37259,-2.355078 l 0.93639,-0.849647 2.57298,2.597327 2.57298,2.597432 -0.93953,0.971711 c -2.02431,2.096736 -5.07489,3.827904 -8.02723,4.555695 -1.80798,0.445725 -5.4741,0.637392 -7.27477,0.380303 z m 33.36823,0.0096 c -7.11801,-1.145403 -12.60362,-6.818493 -13.90996,-14.386097 -1.07747,-6.2344 0.63227,-12.457095 4.5837,-16.685786 2.16226,-2.314425 5.06235,-4.05479 8.04186,-4.826788 1.76513,-0.457429 5.51382,-0.463595 7.35107,-0.01212 1.85187,0.45513 4.17089,1.664074 5.73642,2.991111 l 1.33247,1.129623 v -1.904337 -1.904338 h 3.95875 3.95874 v 17.508157 17.508156 h -3.95874 -3.95875 v -1.919909 -1.919909 l -1.27081,1.175397 c -1.43071,1.323798 -3.58775,2.476726 -5.51487,2.948368 -1.45161,0.355222 -4.97038,0.520553 -6.34988,0.298474 z m 6.43767,-7.725201 c 1.62405,-0.427018 2.87709,-1.171321 4.15313,-2.46732 2.07343,-2.105096 2.96592,-4.480972 2.96592,-7.898056 0,-3.427327 -0.91862,-5.891511 -2.94606,-7.897743 -1.89368,-1.874239 -4.12805,-2.759419 -6.96439,-2.759419 -4.68612,0 -8.40764,3.115372 -9.46734,7.926065 -0.37728,1.711312 -0.28531,4.913738 0.18289,6.403389 0.75036,2.38131 2.45801,4.64066 4.35378,5.759831 1.93653,1.143627 5.35184,1.556327 7.72207,0.933253 z m 65.18138,7.70106 c -2.79767,-0.367135 -5.9005,-1.566151 -8.03663,-3.104816 -1.69198,-1.21929 -4.22315,-3.995952 -5.14909,-5.649576 -0.9458,-1.690097 -1.84143,-4.307594 -2.14345,-6.268783 -0.31248,-2.029851 -0.12541,-5.991943 0.37309,-7.896071 0.8277,-3.161564 2.5249,-6.040643 4.9453,-8.385794 2.19048,-2.123176 4.04758,-3.242557 6.85361,-4.131707 7.61024,-2.411199 15.67091,0.424614 19.42691,6.834692 1.50596,2.568796 2.24065,4.852392 2.52804,7.851655 0.15572,1.626765 0.003,4.424747 -0.29471,5.395831 -0.0951,0.312896 -0.881,0.332961 -13.02165,0.332961 h -12.92027 l 0.12541,0.523374 c 0.32293,1.33728 1.48714,3.28436 2.62105,4.384198 2.03894,1.976552 4.15522,2.757015 7.47334,2.757015 3.1624,0 5.76255,-0.911724 7.78268,-2.72932 l 1.01372,-0.91256 2.52491,2.554061 2.5249,2.554061 -1.03254,1.061379 c -3.6285,3.731025 -9.68158,5.605473 -15.59462,4.8294 z m 10.98479,-22.30077 c -0.2226,-1.139969 -1.38263,-3.272655 -2.26363,-4.162224 -1.68362,-1.698666 -3.73615,-2.458332 -6.59234,-2.439939 -3.10492,0.02007 -5.45112,0.98488 -7.27582,2.991321 -0.82979,0.912456 -1.84978,2.710822 -2.15599,3.80115 l -0.12123,0.428168 h 9.2646 9.2646 z m -167.1139,7.850192 V 53.982236 h -4.14686 -4.14687 v -3.615754 -3.615858 h 4.14687 4.14686 l 0.004,-3.282792 c 0.005,-5.028278 0.43788,-7.189704 1.89054,-9.458773 1.4955,-2.336476 3.65986,-4.021452 6.29031,-4.896808 1.34292,-0.446874 1.82366,-0.507071 4.06848,-0.509788 2.16017,-0.0028 2.7287,0.06187 3.76959,0.427436 1.49237,0.524106 3.02236,1.36466 4.1176,2.261126 l 0.81829,0.670312 -2.59596,2.625858 -2.59597,2.625753 -0.51209,-0.368285 c -0.28113,-0.202535 -1.04508,-0.50613 -1.69616,-0.674492 -2.19361,-0.567371 -4.04549,0.140981 -5.02368,1.921477 -0.51627,0.938478 -0.52463,1.004318 -0.58733,4.805259 l -0.0637,3.853717 h 10.57303 10.57304 v 17.508157 17.508156 h -3.95875 -3.95875 V 67.874639 53.982236 h -6.59756 -6.59757 v 13.892403 13.892298 h -3.95875 -3.95874 z M 285.09608,64.258781 V 46.750624 h 3.9577 3.95875 v 1.791469 1.791365 l 1.16944,-1.229114 c 1.46101,-1.536052 3.18539,-2.441193 5.43335,-2.851907 3.77272,-0.689228 7.32075,0.248205 9.85924,2.604747 l 1.16004,1.077264 -2.30649,2.475262 c -1.26767,1.361421 -2.42666,2.576635 -2.57506,2.700476 -0.21424,0.180171 -0.4358,0.09636 -1.1036,-0.418762 -1.1684,-0.900123 -2.21243,-1.149897 -4.41858,-1.056676 -1.48506,0.06281 -2.05462,0.175468 -2.91577,0.57636 -1.35546,0.631539 -2.69734,1.874866 -3.28362,3.042634 -0.97401,1.941228 -1.01268,2.466692 -1.01582,13.903585 l -0.003,10.60961 h -3.95875 -3.95875 z M 62.154636,53.219313 c -0.01395,-1.005443 -0.137273,-1.786263 -0.01448,-1.958073 0.73888,-1.03408 9.947679,-3.708712 16.766695,-4.968864 10.123441,-1.870791 17.00094,-1.764031 21.896079,-0.4696 1.71027,0.452309 4.41322,1.706252 4.76446,2.947044 0.19302,0.681862 -0.95248,1.569825 -1.7694,1.548703 -0.51518,0.253465 -2.02983,-0.08216 -2.67434,-0.211828 -2.579055,-0.518866 -2.528733,-0.733214 -6.984609,-0.881139 -3.694239,0.119452 -6.210972,0.03694 -11.957844,1.366901 -7.960239,1.84226 -12.599339,3.325512 -17.783125,5.612765 l -2.330668,1.053491 c 0,0 0.02232,0.06401 0.107863,-1.479814 0.04205,-0.758928 0.03097,-1.579099 0.03097,-1.579099 z M 194.0846,43.355382 c -1.84456,-0.662892 -3.04744,-2.392284 -3.05058,-4.385243 -0.003,-1.529573 0.35533,-2.477144 1.31366,-3.476759 1.86337,-1.943109 4.85647,-1.916356 6.73343,0.06009 0.84442,0.889673 1.1872,1.842469 1.1872,3.299514 0,1.45694 -0.34278,2.409736 -1.1872,3.299409 -1.31158,1.380545 -3.22197,1.840692 -4.99651,1.202987 z M 59.134573,41.464839 58.504965,40.242242 c -0.126519,-0.245682 -0.510821,-0.899548 -1.102174,-1.76016 2.089244,-3.297887 6.800787,-7.540198 9.008287,-9.257113 11.035153,-8.582746 22.797327,-15.299965 35.363642,-17.241658 3.08767,-0.477104 8.18754,-0.224815 9.99029,0.150498 1.90518,0.396608 4.99109,1.69402 6.14172,2.760332 1.9961,1.850328 3.15664,4.879531 1.90255,8.570416 -1.53208,4.511906 -4.68957,7.369143 -7.01382,9.728716 -0.93116,0.94433 -1.38473,1.253255 -2.18944,1.489337 -1.08792,0.31948 -1.96568,0.233888 -2.3463,-0.22908 -0.36013,-0.438201 -0.27119,-1.778929 0.18906,-2.850758 0.30965,-0.721207 0.7536,-1.253464 1.73085,-2.075417 0.7232,-0.60792 2.07134,-1.904232 2.99519,-2.880647 1.35755,-1.433112 1.85606,-2.129969 2.58656,-3.615858 0.73678,-1.497855 0.60933,-2.02774 0.60933,-2.845146 0,-0.8518 -0.42155,-1.388797 -0.8908,-1.883065 -1.93025,-2.033572 -8.6231,-2.245361 -15.684468,-0.834571 C 87.7407,19.876456 73.743058,28.736337 62.40179,41.136581 c -1.148747,1.255972 -2.215355,2.37489 -2.269803,2.395165 -0.05445,0.02027 -0.458054,-0.95087 -0.997418,-2.066907 z"
           fill="#2b3241"
           id="path184"
           style="stroke-width:1.04508"
           sodipodi:nodetypes="ccccsssccscssccscssccccsccsscsccsccccccccccccsssssscccssssscsccccccccccccsccccccssssccsscccccccccccccssccsscsccccscccscccccscccsccccccccsscccccccccccccccscscccccccccccccccccccccccccccccccscccccsccsccccccsccscscccssccsscscccscsscccccscccscssscscsc" /></g></g></g></svg>
