<svg width="55" height="55" viewBox="0 0 55 55" fill="none" xmlns="http://www.w3.org/2000/svg">
<path d="M27.2135 0.665955C12.3679 0.665955 0.333496 12.7004 0.333496 27.546C0.333496 42.3916 12.3679 54.426 27.2135 54.426C42.0591 54.426 54.0935 42.3916 54.0935 27.546C54.0935 12.7004 42.0591 0.665955 27.2135 0.665955ZM16.6603 19.146H37.7163C38.8335 19.146 38.2567 20.5796 37.6491 20.9464C37.0415 21.3104 28.6331 26.398 28.3167 26.5856C28.0003 26.7732 27.5971 26.8656 27.1883 26.8656C26.7949 26.8736 26.4065 26.777 26.0627 26.5856L16.7275 20.9464C16.1199 20.5796 15.5459 19.146 16.6603 19.146ZM38.4135 34.546C38.4135 35.134 37.7079 35.946 37.1703 35.946H17.2567C16.7191 35.946 16.0135 35.134 16.0135 34.546V24.3344C16.0135 24.0768 16.0079 23.7436 16.4951 24.0264L26.0627 29.6684C26.4004 29.8748 26.7933 29.9725 27.1883 29.9484C27.5971 29.9484 27.8939 29.9176 28.3167 29.6684L37.9319 24.0292C38.4191 23.7436 38.4135 24.0796 38.4135 24.3372V34.546Z" fill="white"/>
</svg>
