<svg width="53" height="53" viewBox="0 0 53 53" fill="none" xmlns="http://www.w3.org/2000/svg">
<path d="M26.4838 0.665955C12.2477 0.665955 0.666504 12.2475 0.666504 26.4831C0.666504 40.7191 12.2477 52.3011 26.4838 52.3011C40.7191 52.3011 52.3011 40.7191 52.3011 26.4831C52.3011 12.2475 40.7191 0.665955 26.4838 0.665955ZM33.7805 16.9638C33.7805 17.086 33.732 17.2033 33.6455 17.2897C33.5591 17.3762 33.4418 17.4247 33.3196 17.4247L30.3848 17.4266C28.4483 17.4266 28.0943 18.1807 28.0943 19.6658V22.7467H33.1278C33.2601 22.7467 33.3864 22.8039 33.4735 22.9034C33.5606 23.003 33.6012 23.1353 33.5851 23.2666L32.8683 28.8131C32.854 28.9242 32.7996 29.0263 32.7155 29.1003C32.6313 29.1743 32.5231 29.2151 32.4111 29.215H28.0943V42.9874C28.0943 43.1096 28.0458 43.2269 27.9593 43.3133C27.8729 43.3998 27.7557 43.4483 27.6334 43.4483H21.9067C21.7844 43.4483 21.6672 43.3998 21.5807 43.3133C21.4943 43.2269 21.4457 43.1096 21.4457 42.9874V29.215H17.1152C16.9929 29.215 16.8757 29.1665 16.7893 29.08C16.7028 28.9936 16.6542 28.8764 16.6542 28.7541V23.2076C16.6542 23.0854 16.7028 22.9682 16.7893 22.8817C16.8757 22.7953 16.9929 22.7467 17.1152 22.7467H21.4457V19.1168C21.4457 14.3092 24.3552 11.3233 29.0397 11.3233C31.0536 11.3233 32.8333 11.4731 33.38 11.5455C33.4908 11.5601 33.5925 11.6145 33.6661 11.6985C33.7398 11.7826 33.7805 11.8905 33.7805 12.0023V16.9638Z" fill="white"/>
</svg>
