<svg width="54" height="55" viewBox="0 0 54 55" fill="none" xmlns="http://www.w3.org/2000/svg">
<path d="M29.6298 24.502H29.6711V24.4371L29.6298 24.502ZM29.6298 24.502H29.6711V24.4371L29.6298 24.502ZM29.6298 24.502H29.6711V24.4371L29.6298 24.502ZM29.6298 24.502H29.6711V24.4371L29.6298 24.502ZM29.6298 24.502H29.6711V24.4371L29.6298 24.502ZM29.6298 24.502H29.6711V24.4371L29.6298 24.502ZM29.6298 24.502H29.6711V24.4371L29.6298 24.502ZM29.6298 24.502H29.6711V24.4371L29.6298 24.502ZM29.6298 24.502H29.6711V24.4371L29.6298 24.502ZM29.6298 24.502H29.6711V24.4371L29.6298 24.502ZM29.6298 24.502H29.6711V24.4371L29.6298 24.502ZM29.6298 24.502H29.6711V24.4371L29.6298 24.502ZM29.6298 24.502H29.6711V24.4371L29.6298 24.502ZM29.6298 24.502H29.6711V24.4371L29.6298 24.502ZM29.6298 24.502H29.6711V24.4371L29.6298 24.502ZM29.6298 24.502H29.6711V24.4371L29.6298 24.502ZM26.9453 0.665955C21.616 0.665955 16.4064 2.24627 11.9753 5.20706C7.54417 8.16784 4.09053 12.3761 2.0511 17.2997C0.0116747 22.2233 -0.521932 27.6411 0.517759 32.868C1.55745 38.0949 4.12374 42.8961 7.89211 46.6645C11.6605 50.4328 16.4617 52.9991 21.6885 54.0388C26.9154 55.0785 32.3332 54.5449 37.2568 52.5055C42.1804 50.466 46.3887 47.0124 49.3495 42.5813C52.3103 38.1501 53.8906 32.9405 53.8906 27.6113C53.8828 20.4673 51.0414 13.6182 45.9899 8.56667C40.9384 3.51514 34.0893 0.673763 26.9453 0.665955ZM20.2075 39.7417C20.206 39.8611 20.1574 39.9752 20.0724 40.0591C19.9874 40.143 19.8727 40.1901 19.7532 40.1901H14.5612C14.4423 40.1901 14.3282 40.1428 14.2441 40.0587C14.1601 39.9746 14.1128 39.8606 14.1128 39.7417V22.2954C14.112 22.236 14.1231 22.177 14.1452 22.1219C14.1674 22.0669 14.2003 22.0167 14.242 21.9745C14.2838 21.9322 14.3335 21.8986 14.3882 21.8757C14.443 21.8528 14.5018 21.841 14.5612 21.8411H19.7532C19.8129 21.8411 19.8719 21.8528 19.9271 21.8756C19.9822 21.8985 20.0323 21.9319 20.0745 21.9741C20.1166 22.0163 20.1501 22.0664 20.1729 22.1215C20.1958 22.1766 20.2075 22.2357 20.2075 22.2954V39.7417ZM16.9743 19.5106C16.329 19.5106 15.6982 19.3192 15.1617 18.9607C14.6251 18.6022 14.2069 18.0926 13.96 17.4964C13.713 16.9003 13.6484 16.2442 13.7743 15.6113C13.9002 14.9784 14.2109 14.3971 14.6672 13.9408C15.1235 13.4845 15.7049 13.1737 16.3378 13.0478C16.9707 12.922 17.6267 12.9866 18.2229 13.2335C18.8191 13.4805 19.3286 13.8986 19.6871 14.4352C20.0457 14.9717 20.237 15.6026 20.237 16.2479C20.2378 16.6765 20.1539 17.1012 19.9902 17.4974C19.8265 17.8936 19.5862 18.2535 19.2831 18.5567C18.98 18.8598 18.62 19.1001 18.2238 19.2638C17.8276 19.4275 17.403 19.5113 16.9743 19.5106ZM42.1791 39.7417C42.1776 39.8611 42.129 39.9752 42.044 40.0591C41.9589 40.143 41.8443 40.1901 41.7248 40.1901H36.5328C36.4739 40.1901 36.4156 40.1785 36.3612 40.1559C36.3068 40.1334 36.2574 40.1004 36.2157 40.0587C36.1741 40.0171 36.1411 39.9677 36.1185 39.9133C36.096 39.8588 36.0844 39.8005 36.0844 39.7417V30.3666C36.0844 27.9004 35.2053 26.2366 32.9987 26.2366C32.3111 26.2404 31.6415 26.4568 31.0817 26.856C30.5219 27.2553 30.0993 27.8179 29.8717 28.4668C29.7162 28.9463 29.6482 29.4499 29.6711 29.9536V39.7417C29.6711 39.8621 29.6232 39.9777 29.5381 40.0629C29.4529 40.1481 29.3373 40.196 29.2168 40.196H24.0248C23.9654 40.196 23.9066 40.1842 23.8518 40.1613C23.7971 40.1384 23.7474 40.1048 23.7056 40.0625C23.6639 40.0203 23.631 39.9701 23.6088 39.9151C23.5867 39.86 23.5756 39.801 23.5764 39.7417C23.5764 37.2519 23.6413 25.1628 23.5764 22.319C23.5756 22.2596 23.5867 22.2006 23.6088 22.1455C23.631 22.0905 23.6639 22.0403 23.7056 21.9981C23.7474 21.9558 23.7971 21.9222 23.8518 21.8993C23.9066 21.8764 23.9654 21.8646 24.0248 21.8647H29.205C29.2649 21.8639 29.3243 21.8751 29.3798 21.8976C29.4353 21.9202 29.4857 21.9536 29.528 21.9959C29.5704 22.0383 29.6038 22.0887 29.6263 22.1442C29.6489 22.1996 29.6601 22.2591 29.6593 22.319V24.4607C30.2112 23.5026 31.0149 22.7141 31.9832 22.1805C32.9516 21.6469 34.0475 21.3887 35.1522 21.434C39.1583 21.434 42.1673 24.0536 42.1673 29.694L42.1791 39.7417ZM29.6711 24.5197V24.4548L29.6298 24.5197H29.6711ZM29.6298 24.5197H29.6711V24.4548L29.6298 24.5197ZM29.6298 24.5197H29.6711V24.4548L29.6298 24.5197ZM29.6298 24.5197H29.6711V24.4548L29.6298 24.5197ZM29.6298 24.5197H29.6711V24.4548L29.6298 24.5197ZM29.6298 24.5197H29.6711V24.4548L29.6298 24.5197ZM29.6298 24.5197H29.6711V24.4548L29.6298 24.5197ZM29.6298 24.5197H29.6711V24.4548L29.6298 24.5197ZM29.6298 24.5197H29.6711V24.4548L29.6298 24.5197ZM29.6298 24.5197H29.6711V24.4548L29.6298 24.5197ZM29.6298 24.5197H29.6711V24.4548L29.6298 24.5197ZM29.6298 24.5197H29.6711V24.4548L29.6298 24.5197ZM29.6298 24.5197H29.6711V24.4548L29.6298 24.5197ZM29.6298 24.5197H29.6711V24.4548L29.6298 24.5197ZM29.6298 24.5197H29.6711V24.4548L29.6298 24.5197Z" fill="white"/>
</svg>
